M48
; DRILL file {KiCad (6.0.2)} date Sat Jul  9 21:38:25 2022
; FORMAT={-:-/ absolute / inch / decimal}
; #@! TF.CreationDate,2022-07-09T21:38:25+01:00
; #@! TF.GenerationSoftware,Kicad,Pcbnew,(6.0.2)
; #@! TF.FileFunction,Plated,1,2,PTH
FMAT,2
INCH
; #@! TA.AperFunction,Plated,PTH,ComponentDrill
T1C0.0300
; #@! TA.AperFunction,Plated,PTH,ComponentDrill
T2C0.0394
%
G90
G05
T1
X0.15Y-0.0928
X0.15Y-0.1928
X0.15Y-0.2928
X0.15Y-0.3928
X0.15Y-0.4928
X0.15Y-0.5928
X0.15Y-0.6928
X0.15Y-0.7928
X0.2406Y-0.0925
X0.2406Y-0.1925
X0.2406Y-0.2925
X0.2406Y-0.3925
X0.2406Y-0.4925
X0.2406Y-0.5925
X0.2406Y-0.6925
X0.2406Y-0.7925
X0.3406Y-0.0925
X0.3406Y-0.1925
X0.3406Y-0.2925
X0.3406Y-0.3925
X0.3406Y-0.4925
X0.3406Y-0.5925
X0.3406Y-0.6925
X0.3406Y-0.7925
X0.4406Y-0.0925
X0.4406Y-0.1925
X0.4406Y-0.2925
X0.4406Y-0.3925
X0.4406Y-0.4925
X0.4406Y-0.5925
X0.4406Y-0.6925
X0.4406Y-0.7925
X0.5406Y-0.0925
X0.5406Y-0.1925
X0.5406Y-0.2925
X0.5406Y-0.3925
X0.5406Y-0.4925
X0.5406Y-0.5925
X0.5406Y-0.6925
X0.5406Y-0.7925
X0.6406Y-0.0925
X0.6406Y-0.1925
X0.6406Y-0.2925
X0.6406Y-0.3925
X0.6406Y-0.4925
X0.6406Y-0.5925
X0.6406Y-0.6925
X0.6406Y-0.7925
X0.7406Y-0.0925
X0.7406Y-0.1925
X0.7406Y-0.2925
X0.7406Y-0.3925
X0.7406Y-0.4925
X0.7406Y-0.5925
X0.7406Y-0.6925
X0.7406Y-0.7925
X0.8406Y-0.0925
X0.8406Y-0.1925
X0.8406Y-0.2925
X0.8406Y-0.3925
X0.8406Y-0.4925
X0.8406Y-0.5925
X0.8406Y-0.6925
X0.8406Y-0.7925
X0.9406Y-0.0925
X0.9406Y-0.1925
X0.9406Y-0.2925
X0.9406Y-0.3925
X0.9406Y-0.4925
X0.9406Y-0.5925
X0.9406Y-0.6925
X0.9406Y-0.7925
X1.0311Y-0.0928
X1.0311Y-0.1928
X1.0311Y-0.2928
X1.0311Y-0.3928
X1.0311Y-0.4928
X1.0311Y-0.5928
X1.0311Y-0.6928
X1.0311Y-0.7928
T2
X0.0501Y-0.0928
X0.0501Y-0.1928
X0.0501Y-0.2928
X0.0501Y-0.3928
X0.0501Y-0.4928
X0.0501Y-0.5928
X0.0501Y-0.6928
X0.0501Y-0.7928
X1.1311Y-0.0928
X1.1311Y-0.1928
X1.1311Y-0.2928
X1.1311Y-0.3928
X1.1311Y-0.4928
X1.1311Y-0.5928
X1.1311Y-0.6928
X1.1311Y-0.7928
T0
M30
