%TF.GenerationSoftware,KiCad,Pcbnew,(6.0.2)*%
%TF.CreationDate,2022-07-09T21:38:24+01:00*%
%TF.ProjectId,protoboard,70726f74-6f62-46f6-9172-642e6b696361,rev?*%
%TF.SameCoordinates,Original*%
%TF.FileFunction,Soldermask,Bot*%
%TF.FilePolarity,Negative*%
%FSLAX46Y46*%
G04 Gerber Fmt 4.6, Leading zero omitted, Abs format (unit mm)*
G04 Created by KiCad (PCBNEW (6.0.2)) date 2022-07-09 21:38:24*
%MOMM*%
%LPD*%
G01*
G04 APERTURE LIST*
%ADD10C,1.524000*%
%ADD11R,1.700000X1.700000*%
%ADD12O,1.700000X1.700000*%
G04 APERTURE END LIST*
D10*
%TO.C,69*%
X11190000Y-20130000D03*
%TD*%
%TO.C,72*%
X18810000Y-20130000D03*
%TD*%
%TO.C,68*%
X8650000Y-20130000D03*
%TD*%
%TO.C,70*%
X13730000Y-20130000D03*
%TD*%
%TO.C,71*%
X16270000Y-20130000D03*
%TD*%
%TO.C,67*%
X6110000Y-20130000D03*
%TD*%
%TO.C,74*%
X23890000Y-20130000D03*
%TD*%
%TO.C,73*%
X21350000Y-20130000D03*
%TD*%
%TO.C,61*%
X11190000Y-17590000D03*
%TD*%
%TO.C,64*%
X18810000Y-17590000D03*
%TD*%
%TO.C,60*%
X8650000Y-17590000D03*
%TD*%
%TO.C,62*%
X13730000Y-17590000D03*
%TD*%
%TO.C,63*%
X16270000Y-17590000D03*
%TD*%
%TO.C,59*%
X6110000Y-17590000D03*
%TD*%
%TO.C,66*%
X23890000Y-17590000D03*
%TD*%
%TO.C,65*%
X21350000Y-17590000D03*
%TD*%
%TO.C,REF\u002A\u002A*%
X3810000Y-2357800D03*
%TD*%
%TO.C,11*%
X6110000Y-4890000D03*
%TD*%
%TO.C,31*%
X6110000Y-9970000D03*
%TD*%
%TO.C,51*%
X6110000Y-15050000D03*
%TD*%
%TO.C,24*%
X13730000Y-7430000D03*
%TD*%
%TO.C,55*%
X16270000Y-15050000D03*
%TD*%
%TO.C,17*%
X21350000Y-4890000D03*
%TD*%
%TO.C,REF\u002A\u002A10*%
X26190000Y-9977800D03*
%TD*%
%TO.C,37*%
X21350000Y-9970000D03*
%TD*%
%TO.C,54*%
X13730000Y-15050000D03*
%TD*%
%TO.C,47*%
X21350000Y-12510000D03*
%TD*%
%TO.C,46*%
X18810000Y-12510000D03*
%TD*%
%TO.C,28*%
X23890000Y-7430000D03*
%TD*%
%TO.C,REF\u002A\u002A11*%
X26190000Y-12517800D03*
%TD*%
%TO.C,38*%
X23890000Y-9970000D03*
%TD*%
%TO.C,8*%
X23890000Y-2350000D03*
%TD*%
%TO.C,18*%
X23890000Y-4890000D03*
%TD*%
%TO.C,43*%
X11190000Y-12510000D03*
%TD*%
%TO.C,REF\u002A\u002A5*%
X3810000Y-15057800D03*
%TD*%
%TO.C,REF\u002A\u002A12*%
X26190000Y-15057800D03*
%TD*%
%TO.C,44*%
X13730000Y-12510000D03*
%TD*%
%TO.C,3*%
X11190000Y-2350000D03*
%TD*%
%TO.C,56*%
X18810000Y-15050000D03*
%TD*%
%TO.C,12*%
X8650000Y-4890000D03*
%TD*%
%TO.C,1*%
X6110000Y-2350000D03*
%TD*%
%TO.C,6*%
X18810000Y-2350000D03*
%TD*%
%TO.C,21*%
X6110000Y-7430000D03*
%TD*%
%TO.C,26*%
X18810000Y-7430000D03*
%TD*%
%TO.C,53*%
X11190000Y-15050000D03*
%TD*%
%TO.C,27*%
X21350000Y-7430000D03*
%TD*%
%TO.C,REF\u002A\u002A13*%
X26190000Y-17597800D03*
%TD*%
%TO.C,14*%
X13730000Y-4890000D03*
%TD*%
%TO.C,2*%
X8650000Y-2350000D03*
%TD*%
%TO.C,35*%
X16270000Y-9970000D03*
%TD*%
%TO.C,42*%
X8650000Y-12510000D03*
%TD*%
%TO.C,58*%
X23890000Y-15050000D03*
%TD*%
%TO.C,REF\u002A\u002A14*%
X26190000Y-20137800D03*
%TD*%
%TO.C,52*%
X8650000Y-15050000D03*
%TD*%
%TO.C,25*%
X16270000Y-7430000D03*
%TD*%
%TO.C,REF\u002A\u002A7*%
X3810000Y-20137800D03*
%TD*%
%TO.C,REF\u002A\u002A*%
X26190000Y-2357800D03*
%TD*%
%TO.C,REF\u002A\u002A4*%
X3810000Y-12517800D03*
%TD*%
%TO.C,33*%
X11190000Y-9970000D03*
%TD*%
%TO.C,36*%
X18810000Y-9970000D03*
%TD*%
D11*
%TO.C,J3*%
X28730000Y-2357800D03*
D12*
X28730000Y-4897800D03*
X28730000Y-7437800D03*
X28730000Y-9977800D03*
X28730000Y-12517800D03*
X28730000Y-15057800D03*
X28730000Y-17597800D03*
X28730000Y-20137800D03*
%TD*%
D10*
%TO.C,REF\u002A\u002A1*%
X3810000Y-4897800D03*
%TD*%
%TO.C,45*%
X16270000Y-12510000D03*
%TD*%
%TO.C,32*%
X8650000Y-9970000D03*
%TD*%
%TO.C,23*%
X11190000Y-7430000D03*
%TD*%
%TO.C,16*%
X18810000Y-4890000D03*
%TD*%
%TO.C,22*%
X8650000Y-7430000D03*
%TD*%
%TO.C,REF\u002A\u002A9*%
X26190000Y-7437800D03*
%TD*%
%TO.C,4*%
X13730000Y-2350000D03*
%TD*%
%TO.C,57*%
X21350000Y-15050000D03*
%TD*%
%TO.C,34*%
X13730000Y-9970000D03*
%TD*%
%TO.C,REF\u002A\u002A8*%
X26190000Y-4897800D03*
%TD*%
D11*
%TO.C,J2*%
X1272600Y-2357800D03*
D12*
X1272600Y-4897800D03*
X1272600Y-7437800D03*
X1272600Y-9977800D03*
X1272600Y-12517800D03*
X1272600Y-15057800D03*
X1272600Y-17597800D03*
X1272600Y-20137800D03*
%TD*%
D10*
%TO.C,13*%
X11190000Y-4890000D03*
%TD*%
%TO.C,REF\u002A\u002A6*%
X3810000Y-17597800D03*
%TD*%
%TO.C,REF\u002A\u002A2*%
X3810000Y-7437800D03*
%TD*%
%TO.C,5*%
X16270000Y-2350000D03*
%TD*%
%TO.C,15*%
X16270000Y-4890000D03*
%TD*%
%TO.C,REF\u002A\u002A3*%
X3810000Y-9977800D03*
%TD*%
%TO.C,48*%
X23890000Y-12510000D03*
%TD*%
%TO.C,7*%
X21350000Y-2350000D03*
%TD*%
%TO.C,41*%
X6110000Y-12510000D03*
%TD*%
M02*
