%TF.GenerationSoftware,KiCad,Pcbnew,(6.0.2)*%
%TF.CreationDate,2022-07-09T21:38:24+01:00*%
%TF.ProjectId,protoboard,70726f74-6f62-46f6-9172-642e6b696361,rev?*%
%TF.SameCoordinates,Original*%
%TF.FileFunction,Legend,Bot*%
%TF.FilePolarity,Positive*%
%FSLAX46Y46*%
G04 Gerber Fmt 4.6, Leading zero omitted, Abs format (unit mm)*
G04 Created by KiCad (PCBNEW (6.0.2)) date 2022-07-09 21:38:24*
%MOMM*%
%LPD*%
G01*
G04 APERTURE LIST*
%ADD10C,1.000000*%
%ADD11C,0.300000*%
%ADD12C,0.100000*%
G04 APERTURE END LIST*
D10*
X3810000Y-4890000D02*
X1260000Y-4890000D01*
X3810000Y-12510000D02*
X1260000Y-12510000D01*
X3810000Y-7430000D02*
X1260000Y-7430000D01*
X28760000Y-12520000D02*
X26210000Y-12520000D01*
X28760000Y-2360000D02*
X26210000Y-2360000D01*
X3810000Y-2350000D02*
X1260000Y-2350000D01*
X28760000Y-17600000D02*
X26210000Y-17600000D01*
X28760000Y-20140000D02*
X26210000Y-20140000D01*
X3810000Y-15050000D02*
X1260000Y-15050000D01*
X28760000Y-4900000D02*
X26210000Y-4900000D01*
X3810000Y-17590000D02*
X1260000Y-17590000D01*
X3810000Y-9970000D02*
X1260000Y-9970000D01*
X28760000Y-9980000D02*
X26210000Y-9980000D01*
X28760000Y-15060000D02*
X26210000Y-15060000D01*
X28760000Y-7440000D02*
X26210000Y-7440000D01*
X3810000Y-20130000D02*
X1260000Y-20130000D01*
D11*
X38907142Y-16600000D02*
X38907142Y-17742857D01*
X39478571Y-19242857D02*
X39478571Y-18385714D01*
X39478571Y-18814285D02*
X37978571Y-18814285D01*
X38192857Y-18671428D01*
X38335714Y-18528571D01*
X38407142Y-18385714D01*
X38121428Y-19814285D02*
X38050000Y-19885714D01*
X37978571Y-20028571D01*
X37978571Y-20385714D01*
X38050000Y-20528571D01*
X38121428Y-20600000D01*
X38264285Y-20671428D01*
X38407142Y-20671428D01*
X38621428Y-20600000D01*
X39478571Y-19742857D01*
X39478571Y-20671428D01*
X37978571Y-21100000D02*
X39478571Y-21600000D01*
X37978571Y-22100000D01*
X39335714Y-22600000D02*
X39407142Y-22671428D01*
X39478571Y-22600000D01*
X39407142Y-22528571D01*
X39335714Y-22600000D01*
X39478571Y-22600000D01*
X38907142Y-22600000D02*
X38050000Y-22528571D01*
X37978571Y-22600000D01*
X38050000Y-22671428D01*
X38907142Y-22600000D01*
X37978571Y-22600000D01*
D12*
X38542857Y-15511428D02*
X38228571Y-15111428D01*
X38542857Y-15111428D02*
X38228571Y-15511428D01*
X37685714Y-15511428D02*
X38028571Y-15511428D01*
X37857142Y-15511428D02*
X37857142Y-14911428D01*
X37914285Y-14997142D01*
X37971428Y-15054285D01*
X38028571Y-15082857D01*
M02*
