%TF.GenerationSoftware,KiCad,Pcbnew,(6.0.2)*%
%TF.CreationDate,2022-07-09T21:40:46+01:00*%
%TF.ProjectId,front panel,66726f6e-7420-4706-916e-656c2e6b6963,rev?*%
%TF.SameCoordinates,Original*%
%TF.FileFunction,Copper,L2,Bot*%
%TF.FilePolarity,Positive*%
%FSLAX46Y46*%
G04 Gerber Fmt 4.6, Leading zero omitted, Abs format (unit mm)*
G04 Created by KiCad (PCBNEW (6.0.2)) date 2022-07-09 21:40:46*
%MOMM*%
%LPD*%
G01*
G04 APERTURE LIST*
G04 APERTURE END LIST*
%TA.AperFunction,NonConductor*%
G36*
X29815121Y-147002D02*
G01*
X29861614Y-200658D01*
X29873000Y-253000D01*
X29873000Y-39397000D01*
X29852998Y-39465121D01*
X29799342Y-39511614D01*
X29747000Y-39523000D01*
X253000Y-39523000D01*
X184879Y-39502998D01*
X138386Y-39449342D01*
X127000Y-39397000D01*
X127000Y-36650000D01*
X4498589Y-36650000D01*
X4516212Y-36896405D01*
X4517168Y-36900799D01*
X4561629Y-37105182D01*
X4568723Y-37137795D01*
X4570290Y-37141997D01*
X4570292Y-37142003D01*
X4636208Y-37318728D01*
X4655053Y-37369254D01*
X4657207Y-37373198D01*
X4657208Y-37373201D01*
X4751653Y-37546164D01*
X4773444Y-37586071D01*
X4776145Y-37589679D01*
X4918789Y-37780230D01*
X4918795Y-37780237D01*
X4921487Y-37783833D01*
X5096167Y-37958513D01*
X5099763Y-37961205D01*
X5099770Y-37961211D01*
X5219589Y-38050906D01*
X5293929Y-38106556D01*
X5510746Y-38224947D01*
X5514958Y-38226518D01*
X5737997Y-38309708D01*
X5738003Y-38309710D01*
X5742205Y-38311277D01*
X5746591Y-38312231D01*
X5746594Y-38312232D01*
X5889602Y-38343341D01*
X5983595Y-38363788D01*
X6229649Y-38381386D01*
X6230000Y-38381480D01*
X6246018Y-38377188D01*
X6261887Y-38377187D01*
X6263308Y-38377000D01*
X8736692Y-38377000D01*
X8738113Y-38377187D01*
X8753982Y-38377188D01*
X8770000Y-38381480D01*
X8770351Y-38381386D01*
X8788852Y-38380063D01*
X8788853Y-38380063D01*
X9011917Y-38364109D01*
X9016405Y-38363788D01*
X9110398Y-38343341D01*
X9253406Y-38312232D01*
X9253409Y-38312231D01*
X9257795Y-38311277D01*
X9261997Y-38309710D01*
X9262003Y-38309708D01*
X9485042Y-38226518D01*
X9489254Y-38224947D01*
X9706071Y-38106556D01*
X9780411Y-38050906D01*
X9900230Y-37961211D01*
X9900237Y-37961205D01*
X9903833Y-37958513D01*
X10078513Y-37783833D01*
X10081205Y-37780237D01*
X10081211Y-37780230D01*
X10223855Y-37589679D01*
X10226556Y-37586071D01*
X10248347Y-37546164D01*
X10342792Y-37373201D01*
X10342793Y-37373198D01*
X10344947Y-37369254D01*
X10363792Y-37318728D01*
X10429708Y-37142003D01*
X10429710Y-37141997D01*
X10431277Y-37137795D01*
X10438372Y-37105182D01*
X10482832Y-36900799D01*
X10483788Y-36896405D01*
X10501411Y-36650000D01*
X10483788Y-36403595D01*
X10463341Y-36309602D01*
X10432232Y-36166594D01*
X10432231Y-36166591D01*
X10431277Y-36162205D01*
X10429710Y-36158003D01*
X10429708Y-36157997D01*
X10346518Y-35934958D01*
X10344947Y-35930746D01*
X10264923Y-35784192D01*
X10228715Y-35717883D01*
X10226556Y-35713929D01*
X10147582Y-35608432D01*
X10081211Y-35519770D01*
X10081205Y-35519763D01*
X10078513Y-35516167D01*
X9903833Y-35341487D01*
X9900237Y-35338795D01*
X9900230Y-35338789D01*
X9709679Y-35196145D01*
X9709680Y-35196145D01*
X9706071Y-35193444D01*
X9489254Y-35075053D01*
X9485042Y-35073482D01*
X9262003Y-34990292D01*
X9261997Y-34990290D01*
X9257795Y-34988723D01*
X9253409Y-34987769D01*
X9253406Y-34987768D01*
X9110398Y-34956659D01*
X9016405Y-34936212D01*
X8770351Y-34918614D01*
X8770000Y-34918520D01*
X8753982Y-34922812D01*
X8738113Y-34922813D01*
X8736692Y-34923000D01*
X6263308Y-34923000D01*
X6261887Y-34922813D01*
X6246018Y-34922812D01*
X6230000Y-34918520D01*
X6229649Y-34918614D01*
X6211148Y-34919937D01*
X6211147Y-34919937D01*
X5988083Y-34935891D01*
X5983595Y-34936212D01*
X5889602Y-34956659D01*
X5746594Y-34987768D01*
X5746591Y-34987769D01*
X5742205Y-34988723D01*
X5738003Y-34990290D01*
X5737997Y-34990292D01*
X5514958Y-35073482D01*
X5510746Y-35075053D01*
X5293929Y-35193444D01*
X5290320Y-35196145D01*
X5290321Y-35196145D01*
X5099770Y-35338789D01*
X5099763Y-35338795D01*
X5096167Y-35341487D01*
X4921487Y-35516167D01*
X4918795Y-35519763D01*
X4918789Y-35519770D01*
X4852418Y-35608432D01*
X4773444Y-35713929D01*
X4771285Y-35717883D01*
X4735078Y-35784192D01*
X4655053Y-35930746D01*
X4653482Y-35934958D01*
X4570292Y-36157997D01*
X4570290Y-36158003D01*
X4568723Y-36162205D01*
X4567769Y-36166591D01*
X4567768Y-36166594D01*
X4536659Y-36309602D01*
X4516212Y-36403595D01*
X4498589Y-36650000D01*
X127000Y-36650000D01*
X127000Y-25974873D01*
X5168230Y-25974873D01*
X5183340Y-26335396D01*
X5238544Y-26691988D01*
X5333152Y-27040205D01*
X5465986Y-27375705D01*
X5467632Y-27378801D01*
X5467634Y-27378805D01*
X5633741Y-27691206D01*
X5635390Y-27694307D01*
X5637375Y-27697206D01*
X5837262Y-27989134D01*
X5837267Y-27989140D01*
X5839253Y-27992041D01*
X6075033Y-28265195D01*
X6339791Y-28510364D01*
X6630229Y-28724493D01*
X6633266Y-28726247D01*
X6633270Y-28726249D01*
X6798992Y-28821929D01*
X6942725Y-28904913D01*
X6945946Y-28906320D01*
X7270164Y-29047968D01*
X7270174Y-29047972D01*
X7273386Y-29049375D01*
X7276743Y-29050414D01*
X7276748Y-29050416D01*
X7614728Y-29155038D01*
X7618088Y-29156078D01*
X7621544Y-29156737D01*
X7621543Y-29156737D01*
X7969085Y-29223035D01*
X7969091Y-29223036D01*
X7972536Y-29223693D01*
X8211187Y-29242056D01*
X8328815Y-29251107D01*
X8328816Y-29251107D01*
X8332312Y-29251376D01*
X8557744Y-29243504D01*
X8689417Y-29238906D01*
X8689422Y-29238906D01*
X8692932Y-29238783D01*
X8871416Y-29212427D01*
X9046422Y-29186584D01*
X9046427Y-29186583D01*
X9049901Y-29186070D01*
X9053293Y-29185174D01*
X9053297Y-29185173D01*
X9395378Y-29094792D01*
X9395379Y-29094792D01*
X9398769Y-29093896D01*
X9735189Y-28963407D01*
X10054966Y-28796231D01*
X10354116Y-28594452D01*
X10628909Y-28360585D01*
X10657246Y-28330409D01*
X10873510Y-28100112D01*
X10873514Y-28100107D01*
X10875921Y-28097544D01*
X10878026Y-28094730D01*
X10878032Y-28094723D01*
X11089963Y-27811428D01*
X11092072Y-27808609D01*
X11274669Y-27497379D01*
X11421436Y-27167736D01*
X11530543Y-26823787D01*
X11600631Y-26469819D01*
X11630825Y-26110245D01*
X11632085Y-26020000D01*
X11629760Y-25978400D01*
X11629563Y-25974873D01*
X18368230Y-25974873D01*
X18383340Y-26335396D01*
X18438544Y-26691988D01*
X18533152Y-27040205D01*
X18665986Y-27375705D01*
X18667632Y-27378801D01*
X18667634Y-27378805D01*
X18833741Y-27691206D01*
X18835390Y-27694307D01*
X18837375Y-27697206D01*
X19037262Y-27989134D01*
X19037267Y-27989140D01*
X19039253Y-27992041D01*
X19275033Y-28265195D01*
X19539791Y-28510364D01*
X19830229Y-28724493D01*
X19833266Y-28726247D01*
X19833270Y-28726249D01*
X19998992Y-28821929D01*
X20142725Y-28904913D01*
X20145946Y-28906320D01*
X20470164Y-29047968D01*
X20470174Y-29047972D01*
X20473386Y-29049375D01*
X20476743Y-29050414D01*
X20476748Y-29050416D01*
X20814728Y-29155038D01*
X20818088Y-29156078D01*
X20821544Y-29156737D01*
X20821543Y-29156737D01*
X21169085Y-29223035D01*
X21169091Y-29223036D01*
X21172536Y-29223693D01*
X21411187Y-29242056D01*
X21528815Y-29251107D01*
X21528816Y-29251107D01*
X21532312Y-29251376D01*
X21757744Y-29243504D01*
X21889417Y-29238906D01*
X21889422Y-29238906D01*
X21892932Y-29238783D01*
X22071416Y-29212427D01*
X22246422Y-29186584D01*
X22246427Y-29186583D01*
X22249901Y-29186070D01*
X22253293Y-29185174D01*
X22253297Y-29185173D01*
X22595378Y-29094792D01*
X22595379Y-29094792D01*
X22598769Y-29093896D01*
X22935189Y-28963407D01*
X23254966Y-28796231D01*
X23554116Y-28594452D01*
X23828909Y-28360585D01*
X23857246Y-28330409D01*
X24073510Y-28100112D01*
X24073514Y-28100107D01*
X24075921Y-28097544D01*
X24078026Y-28094730D01*
X24078032Y-28094723D01*
X24289963Y-27811428D01*
X24292072Y-27808609D01*
X24474669Y-27497379D01*
X24621436Y-27167736D01*
X24730543Y-26823787D01*
X24800631Y-26469819D01*
X24830825Y-26110245D01*
X24832085Y-26020000D01*
X24829760Y-25978400D01*
X24812138Y-25663232D01*
X24811942Y-25659723D01*
X24751766Y-25303936D01*
X24652305Y-24957075D01*
X24545563Y-24698100D01*
X24516137Y-24626707D01*
X24516133Y-24626700D01*
X24514799Y-24623462D01*
X24340964Y-24307256D01*
X24316250Y-24272221D01*
X24134995Y-24015277D01*
X24134994Y-24015276D01*
X24132964Y-24012398D01*
X24010273Y-23874207D01*
X23895726Y-23745189D01*
X23895720Y-23745183D01*
X23893393Y-23742562D01*
X23860967Y-23713365D01*
X23627857Y-23503472D01*
X23627856Y-23503471D01*
X23625237Y-23501113D01*
X23526286Y-23430271D01*
X23334705Y-23293112D01*
X23334698Y-23293108D01*
X23331838Y-23291060D01*
X23016853Y-23115021D01*
X22684208Y-22975190D01*
X22680839Y-22974199D01*
X22680835Y-22974197D01*
X22527957Y-22929203D01*
X22338049Y-22873310D01*
X21982692Y-22810651D01*
X21979183Y-22810430D01*
X21979181Y-22810430D01*
X21626082Y-22788215D01*
X21626076Y-22788215D01*
X21622564Y-22787994D01*
X21520496Y-22792986D01*
X21265662Y-22805449D01*
X21265653Y-22805450D01*
X21262155Y-22805621D01*
X21258687Y-22806183D01*
X21258684Y-22806183D01*
X20909432Y-22862749D01*
X20909429Y-22862750D01*
X20905957Y-22863312D01*
X20902570Y-22864258D01*
X20902564Y-22864259D01*
X20615774Y-22944333D01*
X20558410Y-22960349D01*
X20518304Y-22976553D01*
X20227109Y-23094203D01*
X20227105Y-23094205D01*
X20223845Y-23095522D01*
X20220758Y-23097191D01*
X20220754Y-23097193D01*
X20190303Y-23113658D01*
X19906433Y-23267146D01*
X19610130Y-23473082D01*
X19607488Y-23475395D01*
X19607484Y-23475398D01*
X19575416Y-23503472D01*
X19338629Y-23710764D01*
X19095314Y-23977228D01*
X18883217Y-24269153D01*
X18704983Y-24582901D01*
X18562834Y-24914562D01*
X18458539Y-25260001D01*
X18393401Y-25614912D01*
X18371604Y-25926616D01*
X18368230Y-25974873D01*
X11629563Y-25974873D01*
X11612138Y-25663232D01*
X11611942Y-25659723D01*
X11551766Y-25303936D01*
X11452305Y-24957075D01*
X11345563Y-24698100D01*
X11316137Y-24626707D01*
X11316133Y-24626700D01*
X11314799Y-24623462D01*
X11140964Y-24307256D01*
X11116250Y-24272221D01*
X10934995Y-24015277D01*
X10934994Y-24015276D01*
X10932964Y-24012398D01*
X10810273Y-23874207D01*
X10695726Y-23745189D01*
X10695720Y-23745183D01*
X10693393Y-23742562D01*
X10660967Y-23713365D01*
X10427857Y-23503472D01*
X10427856Y-23503471D01*
X10425237Y-23501113D01*
X10326286Y-23430271D01*
X10134705Y-23293112D01*
X10134698Y-23293108D01*
X10131838Y-23291060D01*
X9816853Y-23115021D01*
X9484208Y-22975190D01*
X9480839Y-22974199D01*
X9480835Y-22974197D01*
X9327957Y-22929203D01*
X9138049Y-22873310D01*
X8782692Y-22810651D01*
X8779183Y-22810430D01*
X8779181Y-22810430D01*
X8426082Y-22788215D01*
X8426076Y-22788215D01*
X8422564Y-22787994D01*
X8320496Y-22792986D01*
X8065662Y-22805449D01*
X8065653Y-22805450D01*
X8062155Y-22805621D01*
X8058687Y-22806183D01*
X8058684Y-22806183D01*
X7709432Y-22862749D01*
X7709429Y-22862750D01*
X7705957Y-22863312D01*
X7702570Y-22864258D01*
X7702564Y-22864259D01*
X7415774Y-22944333D01*
X7358410Y-22960349D01*
X7318304Y-22976553D01*
X7027109Y-23094203D01*
X7027105Y-23094205D01*
X7023845Y-23095522D01*
X7020758Y-23097191D01*
X7020754Y-23097193D01*
X6990303Y-23113658D01*
X6706433Y-23267146D01*
X6410130Y-23473082D01*
X6407488Y-23475395D01*
X6407484Y-23475398D01*
X6375416Y-23503472D01*
X6138629Y-23710764D01*
X5895314Y-23977228D01*
X5683217Y-24269153D01*
X5504983Y-24582901D01*
X5362834Y-24914562D01*
X5258539Y-25260001D01*
X5193401Y-25614912D01*
X5171604Y-25926616D01*
X5168230Y-25974873D01*
X127000Y-25974873D01*
X127000Y-13579873D01*
X5168230Y-13579873D01*
X5183340Y-13940396D01*
X5238544Y-14296988D01*
X5333152Y-14645205D01*
X5465986Y-14980705D01*
X5467632Y-14983801D01*
X5467634Y-14983805D01*
X5633741Y-15296206D01*
X5635390Y-15299307D01*
X5637375Y-15302206D01*
X5837262Y-15594134D01*
X5837267Y-15594140D01*
X5839253Y-15597041D01*
X6075033Y-15870195D01*
X6339791Y-16115364D01*
X6630229Y-16329493D01*
X6633266Y-16331247D01*
X6633270Y-16331249D01*
X6798992Y-16426929D01*
X6942725Y-16509913D01*
X6945946Y-16511320D01*
X7270164Y-16652968D01*
X7270174Y-16652972D01*
X7273386Y-16654375D01*
X7276743Y-16655414D01*
X7276748Y-16655416D01*
X7614728Y-16760038D01*
X7618088Y-16761078D01*
X7621544Y-16761737D01*
X7621543Y-16761737D01*
X7969085Y-16828035D01*
X7969091Y-16828036D01*
X7972536Y-16828693D01*
X8211187Y-16847056D01*
X8328815Y-16856107D01*
X8328816Y-16856107D01*
X8332312Y-16856376D01*
X8557744Y-16848504D01*
X8689417Y-16843906D01*
X8689422Y-16843906D01*
X8692932Y-16843783D01*
X8871417Y-16817426D01*
X9046422Y-16791584D01*
X9046427Y-16791583D01*
X9049901Y-16791070D01*
X9053293Y-16790174D01*
X9053297Y-16790173D01*
X9395378Y-16699792D01*
X9395379Y-16699792D01*
X9398769Y-16698896D01*
X9735189Y-16568407D01*
X10054966Y-16401231D01*
X10354116Y-16199452D01*
X10628909Y-15965585D01*
X10657246Y-15935409D01*
X10873510Y-15705112D01*
X10873514Y-15705107D01*
X10875921Y-15702544D01*
X10878026Y-15699730D01*
X10878032Y-15699723D01*
X11089963Y-15416428D01*
X11092072Y-15413609D01*
X11274669Y-15102379D01*
X11421436Y-14772736D01*
X11530543Y-14428787D01*
X11600631Y-14074819D01*
X11630825Y-13715245D01*
X11632085Y-13625000D01*
X11629760Y-13583400D01*
X11629563Y-13579873D01*
X18368230Y-13579873D01*
X18383340Y-13940396D01*
X18438544Y-14296988D01*
X18533152Y-14645205D01*
X18665986Y-14980705D01*
X18667632Y-14983801D01*
X18667634Y-14983805D01*
X18833741Y-15296206D01*
X18835390Y-15299307D01*
X18837375Y-15302206D01*
X19037262Y-15594134D01*
X19037267Y-15594140D01*
X19039253Y-15597041D01*
X19275033Y-15870195D01*
X19539791Y-16115364D01*
X19830229Y-16329493D01*
X19833266Y-16331247D01*
X19833270Y-16331249D01*
X19998992Y-16426929D01*
X20142725Y-16509913D01*
X20145946Y-16511320D01*
X20470164Y-16652968D01*
X20470174Y-16652972D01*
X20473386Y-16654375D01*
X20476743Y-16655414D01*
X20476748Y-16655416D01*
X20814728Y-16760038D01*
X20818088Y-16761078D01*
X20821544Y-16761737D01*
X20821543Y-16761737D01*
X21169085Y-16828035D01*
X21169091Y-16828036D01*
X21172536Y-16828693D01*
X21411187Y-16847056D01*
X21528815Y-16856107D01*
X21528816Y-16856107D01*
X21532312Y-16856376D01*
X21757744Y-16848504D01*
X21889417Y-16843906D01*
X21889422Y-16843906D01*
X21892932Y-16843783D01*
X22071416Y-16817427D01*
X22246422Y-16791584D01*
X22246427Y-16791583D01*
X22249901Y-16791070D01*
X22253293Y-16790174D01*
X22253297Y-16790173D01*
X22595378Y-16699792D01*
X22595379Y-16699792D01*
X22598769Y-16698896D01*
X22935189Y-16568407D01*
X23254966Y-16401231D01*
X23554116Y-16199452D01*
X23828909Y-15965585D01*
X23857246Y-15935409D01*
X24073510Y-15705112D01*
X24073514Y-15705107D01*
X24075921Y-15702544D01*
X24078026Y-15699730D01*
X24078032Y-15699723D01*
X24289963Y-15416428D01*
X24292072Y-15413609D01*
X24474669Y-15102379D01*
X24621436Y-14772736D01*
X24730543Y-14428787D01*
X24800631Y-14074819D01*
X24830825Y-13715245D01*
X24832085Y-13625000D01*
X24829760Y-13583400D01*
X24812138Y-13268232D01*
X24811942Y-13264723D01*
X24751766Y-12908936D01*
X24652305Y-12562075D01*
X24545563Y-12303100D01*
X24516137Y-12231707D01*
X24516133Y-12231700D01*
X24514799Y-12228462D01*
X24340964Y-11912256D01*
X24316250Y-11877221D01*
X24134995Y-11620277D01*
X24134994Y-11620276D01*
X24132964Y-11617398D01*
X24010273Y-11479207D01*
X23895726Y-11350189D01*
X23895720Y-11350183D01*
X23893393Y-11347562D01*
X23860967Y-11318365D01*
X23627857Y-11108472D01*
X23627856Y-11108471D01*
X23625237Y-11106113D01*
X23526286Y-11035271D01*
X23334705Y-10898112D01*
X23334698Y-10898108D01*
X23331838Y-10896060D01*
X23016853Y-10720021D01*
X22684208Y-10580190D01*
X22680839Y-10579199D01*
X22680835Y-10579197D01*
X22527957Y-10534203D01*
X22338049Y-10478310D01*
X21982692Y-10415651D01*
X21979183Y-10415430D01*
X21979181Y-10415430D01*
X21626082Y-10393215D01*
X21626076Y-10393215D01*
X21622564Y-10392994D01*
X21520496Y-10397986D01*
X21265662Y-10410449D01*
X21265653Y-10410450D01*
X21262155Y-10410621D01*
X21258687Y-10411183D01*
X21258684Y-10411183D01*
X20909432Y-10467749D01*
X20909429Y-10467750D01*
X20905957Y-10468312D01*
X20902570Y-10469258D01*
X20902564Y-10469259D01*
X20615774Y-10549333D01*
X20558410Y-10565349D01*
X20518304Y-10581553D01*
X20227109Y-10699203D01*
X20227105Y-10699205D01*
X20223845Y-10700522D01*
X20220758Y-10702191D01*
X20220754Y-10702193D01*
X20190303Y-10718658D01*
X19906433Y-10872146D01*
X19610130Y-11078082D01*
X19607488Y-11080395D01*
X19607484Y-11080398D01*
X19575416Y-11108472D01*
X19338629Y-11315764D01*
X19095314Y-11582228D01*
X18883217Y-11874153D01*
X18704983Y-12187901D01*
X18562834Y-12519562D01*
X18458539Y-12865001D01*
X18393401Y-13219912D01*
X18371604Y-13531616D01*
X18368230Y-13579873D01*
X11629563Y-13579873D01*
X11612138Y-13268232D01*
X11611942Y-13264723D01*
X11551766Y-12908936D01*
X11452305Y-12562075D01*
X11345563Y-12303100D01*
X11316137Y-12231707D01*
X11316133Y-12231700D01*
X11314799Y-12228462D01*
X11140964Y-11912256D01*
X11116250Y-11877221D01*
X10934995Y-11620277D01*
X10934994Y-11620276D01*
X10932964Y-11617398D01*
X10810273Y-11479207D01*
X10695726Y-11350189D01*
X10695720Y-11350183D01*
X10693393Y-11347562D01*
X10660967Y-11318365D01*
X10427857Y-11108472D01*
X10427856Y-11108471D01*
X10425237Y-11106113D01*
X10326286Y-11035271D01*
X10134705Y-10898112D01*
X10134698Y-10898108D01*
X10131838Y-10896060D01*
X9816853Y-10720021D01*
X9484208Y-10580190D01*
X9480839Y-10579199D01*
X9480835Y-10579197D01*
X9327957Y-10534203D01*
X9138049Y-10478310D01*
X8782692Y-10415651D01*
X8779183Y-10415430D01*
X8779181Y-10415430D01*
X8426082Y-10393215D01*
X8426076Y-10393215D01*
X8422564Y-10392994D01*
X8320496Y-10397986D01*
X8065662Y-10410449D01*
X8065653Y-10410450D01*
X8062155Y-10410621D01*
X8058687Y-10411183D01*
X8058684Y-10411183D01*
X7709432Y-10467749D01*
X7709429Y-10467750D01*
X7705957Y-10468312D01*
X7702570Y-10469258D01*
X7702564Y-10469259D01*
X7415774Y-10549333D01*
X7358410Y-10565349D01*
X7318304Y-10581553D01*
X7027109Y-10699203D01*
X7027105Y-10699205D01*
X7023845Y-10700522D01*
X7020758Y-10702191D01*
X7020754Y-10702193D01*
X6990303Y-10718658D01*
X6706433Y-10872146D01*
X6410130Y-11078082D01*
X6407488Y-11080395D01*
X6407484Y-11080398D01*
X6375416Y-11108472D01*
X6138629Y-11315764D01*
X5895314Y-11582228D01*
X5683217Y-11874153D01*
X5504983Y-12187901D01*
X5362834Y-12519562D01*
X5258539Y-12865001D01*
X5193401Y-13219912D01*
X5171604Y-13531616D01*
X5168230Y-13579873D01*
X127000Y-13579873D01*
X127000Y-3000000D01*
X4498589Y-3000000D01*
X4516212Y-3246405D01*
X4517168Y-3250799D01*
X4561629Y-3455182D01*
X4568723Y-3487795D01*
X4570290Y-3491997D01*
X4570292Y-3492003D01*
X4636208Y-3668728D01*
X4655053Y-3719254D01*
X4657207Y-3723198D01*
X4657208Y-3723201D01*
X4751653Y-3896164D01*
X4773444Y-3936071D01*
X4776145Y-3939679D01*
X4918789Y-4130230D01*
X4918795Y-4130237D01*
X4921487Y-4133833D01*
X5096167Y-4308513D01*
X5099763Y-4311205D01*
X5099770Y-4311211D01*
X5219589Y-4400906D01*
X5293929Y-4456556D01*
X5510746Y-4574947D01*
X5514958Y-4576518D01*
X5737997Y-4659708D01*
X5738003Y-4659710D01*
X5742205Y-4661277D01*
X5746591Y-4662231D01*
X5746594Y-4662232D01*
X5889602Y-4693341D01*
X5983595Y-4713788D01*
X6229649Y-4731386D01*
X6230000Y-4731480D01*
X6246018Y-4727188D01*
X6261887Y-4727187D01*
X6263308Y-4727000D01*
X8736692Y-4727000D01*
X8738113Y-4727187D01*
X8753982Y-4727188D01*
X8770000Y-4731480D01*
X8770351Y-4731386D01*
X8788852Y-4730063D01*
X8788853Y-4730063D01*
X9011917Y-4714109D01*
X9016405Y-4713788D01*
X9110398Y-4693341D01*
X9253406Y-4662232D01*
X9253409Y-4662231D01*
X9257795Y-4661277D01*
X9261997Y-4659710D01*
X9262003Y-4659708D01*
X9485042Y-4576518D01*
X9489254Y-4574947D01*
X9706071Y-4456556D01*
X9780411Y-4400906D01*
X9900230Y-4311211D01*
X9900237Y-4311205D01*
X9903833Y-4308513D01*
X10078513Y-4133833D01*
X10081205Y-4130237D01*
X10081211Y-4130230D01*
X10223855Y-3939679D01*
X10226556Y-3936071D01*
X10248347Y-3896164D01*
X10342792Y-3723201D01*
X10342793Y-3723198D01*
X10344947Y-3719254D01*
X10363792Y-3668728D01*
X10429708Y-3492003D01*
X10429710Y-3491997D01*
X10431277Y-3487795D01*
X10438372Y-3455182D01*
X10482832Y-3250799D01*
X10483788Y-3246405D01*
X10501411Y-3000000D01*
X10483788Y-2753595D01*
X10463341Y-2659602D01*
X10432232Y-2516594D01*
X10432231Y-2516591D01*
X10431277Y-2512205D01*
X10429710Y-2508003D01*
X10429708Y-2507997D01*
X10346518Y-2284958D01*
X10344947Y-2280746D01*
X10264923Y-2134192D01*
X10228715Y-2067883D01*
X10226556Y-2063929D01*
X10147582Y-1958432D01*
X10081211Y-1869770D01*
X10081205Y-1869763D01*
X10078513Y-1866167D01*
X9903833Y-1691487D01*
X9900237Y-1688795D01*
X9900230Y-1688789D01*
X9709679Y-1546145D01*
X9709680Y-1546145D01*
X9706071Y-1543444D01*
X9489254Y-1425053D01*
X9485042Y-1423482D01*
X9262003Y-1340292D01*
X9261997Y-1340290D01*
X9257795Y-1338723D01*
X9253409Y-1337769D01*
X9253406Y-1337768D01*
X9110398Y-1306659D01*
X9016405Y-1286212D01*
X8770351Y-1268614D01*
X8770000Y-1268520D01*
X8753982Y-1272812D01*
X8738113Y-1272813D01*
X8736692Y-1273000D01*
X6263308Y-1273000D01*
X6261887Y-1272813D01*
X6246018Y-1272812D01*
X6230000Y-1268520D01*
X6229649Y-1268614D01*
X6211148Y-1269937D01*
X6211147Y-1269937D01*
X5988083Y-1285891D01*
X5983595Y-1286212D01*
X5889602Y-1306659D01*
X5746594Y-1337768D01*
X5746591Y-1337769D01*
X5742205Y-1338723D01*
X5738003Y-1340290D01*
X5737997Y-1340292D01*
X5514958Y-1423482D01*
X5510746Y-1425053D01*
X5293929Y-1543444D01*
X5290320Y-1546145D01*
X5290321Y-1546145D01*
X5099770Y-1688789D01*
X5099763Y-1688795D01*
X5096167Y-1691487D01*
X4921487Y-1866167D01*
X4918795Y-1869763D01*
X4918789Y-1869770D01*
X4852418Y-1958432D01*
X4773444Y-2063929D01*
X4771285Y-2067883D01*
X4735078Y-2134192D01*
X4655053Y-2280746D01*
X4653482Y-2284958D01*
X4570292Y-2507997D01*
X4570290Y-2508003D01*
X4568723Y-2512205D01*
X4567769Y-2516591D01*
X4567768Y-2516594D01*
X4536659Y-2659602D01*
X4516212Y-2753595D01*
X4498589Y-3000000D01*
X127000Y-3000000D01*
X127000Y-253000D01*
X147002Y-184879D01*
X200658Y-138386D01*
X253000Y-127000D01*
X29747000Y-127000D01*
X29815121Y-147002D01*
G37*
%TD.AperFunction*%
M02*
