%TF.GenerationSoftware,KiCad,Pcbnew,(6.0.2)*%
%TF.CreationDate,2022-07-09T21:40:46+01:00*%
%TF.ProjectId,front panel,66726f6e-7420-4706-916e-656c2e6b6963,rev?*%
%TF.SameCoordinates,Original*%
%TF.FileFunction,Legend,Top*%
%TF.FilePolarity,Positive*%
%FSLAX46Y46*%
G04 Gerber Fmt 4.6, Leading zero omitted, Abs format (unit mm)*
G04 Created by KiCad (PCBNEW (6.0.2)) date 2022-07-09 21:40:46*
%MOMM*%
%LPD*%
G01*
G04 APERTURE LIST*
%ADD10C,0.180000*%
G04 APERTURE END LIST*
D10*
X9838571Y-31428571D02*
X9838571Y-32428571D01*
X9838571Y-31571428D02*
X9910000Y-31500000D01*
X10052857Y-31428571D01*
X10267142Y-31428571D01*
X10410000Y-31500000D01*
X10481428Y-31642857D01*
X10481428Y-32428571D01*
X4972857Y-19728571D02*
X4830000Y-19657142D01*
X4758571Y-19585714D01*
X4687142Y-19442857D01*
X4687142Y-19014285D01*
X4758571Y-18871428D01*
X4830000Y-18800000D01*
X4972857Y-18728571D01*
X5187142Y-18728571D01*
X5330000Y-18800000D01*
X5401428Y-18871428D01*
X5472857Y-19014285D01*
X5472857Y-19442857D01*
X5401428Y-19585714D01*
X5330000Y-19657142D01*
X5187142Y-19728571D01*
X4972857Y-19728571D01*
X13684285Y-27618571D02*
X14255714Y-27618571D01*
X13898571Y-27118571D02*
X13898571Y-28404285D01*
X13970000Y-28547142D01*
X14112857Y-28618571D01*
X14255714Y-28618571D01*
X16188571Y-23538571D02*
X16188571Y-22038571D01*
X16831428Y-23538571D02*
X16831428Y-22752857D01*
X16760000Y-22610000D01*
X16617142Y-22538571D01*
X16402857Y-22538571D01*
X16260000Y-22610000D01*
X16188571Y-22681428D01*
X2254285Y-36508571D02*
X2825714Y-36508571D01*
X2468571Y-36008571D02*
X2468571Y-37294285D01*
X2540000Y-37437142D01*
X2682857Y-37508571D01*
X2825714Y-37508571D01*
X26348571Y-3488571D02*
X26348571Y-4488571D01*
X26348571Y-3631428D02*
X26420000Y-3560000D01*
X26562857Y-3488571D01*
X26777142Y-3488571D01*
X26920000Y-3560000D01*
X26991428Y-3702857D01*
X26991428Y-4488571D01*
X11751428Y-20998571D02*
X11751428Y-20212857D01*
X11680000Y-20070000D01*
X11537142Y-19998571D01*
X11251428Y-19998571D01*
X11108571Y-20070000D01*
X11751428Y-20927142D02*
X11608571Y-20998571D01*
X11251428Y-20998571D01*
X11108571Y-20927142D01*
X11037142Y-20784285D01*
X11037142Y-20641428D01*
X11108571Y-20498571D01*
X11251428Y-20427142D01*
X11608571Y-20427142D01*
X11751428Y-20355714D01*
X2254285Y-12378571D02*
X2825714Y-12378571D01*
X2468571Y-11878571D02*
X2468571Y-13164285D01*
X2540000Y-13307142D01*
X2682857Y-13378571D01*
X2825714Y-13378571D01*
X16831428Y-10838571D02*
X16831428Y-9338571D01*
X16831428Y-10767142D02*
X16688571Y-10838571D01*
X16402857Y-10838571D01*
X16260000Y-10767142D01*
X16188571Y-10695714D01*
X16117142Y-10552857D01*
X16117142Y-10124285D01*
X16188571Y-9981428D01*
X16260000Y-9910000D01*
X16402857Y-9838571D01*
X16688571Y-9838571D01*
X16831428Y-9910000D01*
X23808571Y-37508571D02*
X23808571Y-36008571D01*
X24451428Y-37508571D02*
X24451428Y-36722857D01*
X24380000Y-36580000D01*
X24237142Y-36508571D01*
X24022857Y-36508571D01*
X23880000Y-36580000D01*
X23808571Y-36651428D01*
X2218571Y-24737142D02*
X2361428Y-24808571D01*
X2647142Y-24808571D01*
X2790000Y-24737142D01*
X2861428Y-24594285D01*
X2861428Y-24522857D01*
X2790000Y-24380000D01*
X2647142Y-24308571D01*
X2432857Y-24308571D01*
X2290000Y-24237142D01*
X2218571Y-24094285D01*
X2218571Y-24022857D01*
X2290000Y-23880000D01*
X2432857Y-23808571D01*
X2647142Y-23808571D01*
X2790000Y-23880000D01*
X20034285Y-19998571D02*
X20605714Y-19998571D01*
X20248571Y-19498571D02*
X20248571Y-20784285D01*
X20320000Y-20927142D01*
X20462857Y-20998571D01*
X20605714Y-20998571D01*
X25400000Y-32428571D02*
X25400000Y-31428571D01*
X25400000Y-30928571D02*
X25328571Y-31000000D01*
X25400000Y-31071428D01*
X25471428Y-31000000D01*
X25400000Y-30928571D01*
X25400000Y-31071428D01*
X14255714Y-34897142D02*
X14112857Y-34968571D01*
X13827142Y-34968571D01*
X13684285Y-34897142D01*
X13612857Y-34754285D01*
X13612857Y-34182857D01*
X13684285Y-34040000D01*
X13827142Y-33968571D01*
X14112857Y-33968571D01*
X14255714Y-34040000D01*
X14327142Y-34182857D01*
X14327142Y-34325714D01*
X13612857Y-34468571D01*
X3452857Y-30158571D02*
X3810000Y-31158571D01*
X4167142Y-30158571D02*
X3810000Y-31158571D01*
X3667142Y-31515714D01*
X3595714Y-31587142D01*
X3452857Y-31658571D01*
X4131428Y-7028571D02*
X4131428Y-6242857D01*
X4060000Y-6100000D01*
X3917142Y-6028571D01*
X3631428Y-6028571D01*
X3488571Y-6100000D01*
X4131428Y-6957142D02*
X3988571Y-7028571D01*
X3631428Y-7028571D01*
X3488571Y-6957142D01*
X3417142Y-6814285D01*
X3417142Y-6671428D01*
X3488571Y-6528571D01*
X3631428Y-6457142D01*
X3988571Y-6457142D01*
X4131428Y-6385714D01*
X21268571Y-33627142D02*
X21411428Y-33698571D01*
X21697142Y-33698571D01*
X21840000Y-33627142D01*
X21911428Y-33484285D01*
X21911428Y-33412857D01*
X21840000Y-33270000D01*
X21697142Y-33198571D01*
X21482857Y-33198571D01*
X21340000Y-33127142D01*
X21268571Y-32984285D01*
X21268571Y-32912857D01*
X21340000Y-32770000D01*
X21482857Y-32698571D01*
X21697142Y-32698571D01*
X21840000Y-32770000D01*
X17958571Y-4488571D02*
X17815714Y-4417142D01*
X17744285Y-4274285D01*
X17744285Y-2988571D01*
X28118571Y-15918571D02*
X27975714Y-15847142D01*
X27904285Y-15704285D01*
X27904285Y-14418571D01*
X18065714Y-31087142D02*
X17922857Y-31158571D01*
X17637142Y-31158571D01*
X17494285Y-31087142D01*
X17422857Y-30944285D01*
X17422857Y-30372857D01*
X17494285Y-30230000D01*
X17637142Y-30158571D01*
X17922857Y-30158571D01*
X18065714Y-30230000D01*
X18137142Y-30372857D01*
X18137142Y-30515714D01*
X17422857Y-30658571D01*
X27832857Y-24808571D02*
X27690000Y-24737142D01*
X27618571Y-24665714D01*
X27547142Y-24522857D01*
X27547142Y-24094285D01*
X27618571Y-23951428D01*
X27690000Y-23880000D01*
X27832857Y-23808571D01*
X28047142Y-23808571D01*
X28190000Y-23880000D01*
X28261428Y-23951428D01*
X28332857Y-24094285D01*
X28332857Y-24522857D01*
X28261428Y-24665714D01*
X28190000Y-24737142D01*
X28047142Y-24808571D01*
X27832857Y-24808571D01*
X23145714Y-8227142D02*
X23002857Y-8298571D01*
X22717142Y-8298571D01*
X22574285Y-8227142D01*
X22502857Y-8084285D01*
X22502857Y-7512857D01*
X22574285Y-7370000D01*
X22717142Y-7298571D01*
X23002857Y-7298571D01*
X23145714Y-7370000D01*
X23217142Y-7512857D01*
X23217142Y-7655714D01*
X22502857Y-7798571D01*
X18137142Y-37437142D02*
X17994285Y-37508571D01*
X17708571Y-37508571D01*
X17565714Y-37437142D01*
X17494285Y-37365714D01*
X17422857Y-37222857D01*
X17422857Y-36794285D01*
X17494285Y-36651428D01*
X17565714Y-36580000D01*
X17708571Y-36508571D01*
X17994285Y-36508571D01*
X18137142Y-36580000D01*
X14918571Y-17117142D02*
X15061428Y-17188571D01*
X15347142Y-17188571D01*
X15490000Y-17117142D01*
X15561428Y-16974285D01*
X15561428Y-16902857D01*
X15490000Y-16760000D01*
X15347142Y-16688571D01*
X15132857Y-16688571D01*
X14990000Y-16617142D01*
X14918571Y-16474285D01*
X14918571Y-16402857D01*
X14990000Y-16260000D01*
X15132857Y-16188571D01*
X15347142Y-16188571D01*
X15490000Y-16260000D01*
X25292857Y-19728571D02*
X25150000Y-19657142D01*
X25078571Y-19585714D01*
X25007142Y-19442857D01*
X25007142Y-19014285D01*
X25078571Y-18871428D01*
X25150000Y-18800000D01*
X25292857Y-18728571D01*
X25507142Y-18728571D01*
X25650000Y-18800000D01*
X25721428Y-18871428D01*
X25792857Y-19014285D01*
X25792857Y-19442857D01*
X25721428Y-19585714D01*
X25650000Y-19657142D01*
X25507142Y-19728571D01*
X25292857Y-19728571D01*
X11608571Y-8298571D02*
X11465714Y-8227142D01*
X11394285Y-8084285D01*
X11394285Y-6798571D01*
X27618571Y-29817142D02*
X27761428Y-29888571D01*
X28047142Y-29888571D01*
X28190000Y-29817142D01*
X28261428Y-29674285D01*
X28261428Y-29602857D01*
X28190000Y-29460000D01*
X28047142Y-29388571D01*
X27832857Y-29388571D01*
X27690000Y-29317142D01*
X27618571Y-29174285D01*
X27618571Y-29102857D01*
X27690000Y-28960000D01*
X27832857Y-28888571D01*
X28047142Y-28888571D01*
X28190000Y-28960000D01*
M02*
