%TF.GenerationSoftware,KiCad,Pcbnew,(6.0.2)*%
%TF.CreationDate,2022-07-09T21:30:07+01:00*%
%TF.ProjectId,universal pcb,756e6976-6572-4736-916c-207063622e6b,rev?*%
%TF.SameCoordinates,Original*%
%TF.FileFunction,Legend,Top*%
%TF.FilePolarity,Positive*%
%FSLAX46Y46*%
G04 Gerber Fmt 4.6, Leading zero omitted, Abs format (unit mm)*
G04 Created by KiCad (PCBNEW (6.0.2)) date 2022-07-09 21:30:07*
%MOMM*%
%LPD*%
G01*
G04 APERTURE LIST*
%ADD10C,0.150000*%
%ADD11C,0.120000*%
G04 APERTURE END LIST*
D10*
%TO.C,REF\u002A\u002A*%
X14100000Y-8902380D02*
X14100000Y-9140476D01*
X13861904Y-9045238D02*
X14100000Y-9140476D01*
X14338095Y-9045238D01*
X13957142Y-9330952D02*
X14100000Y-9140476D01*
X14242857Y-9330952D01*
D11*
%TO.C,THONKISWITCHPOT\u002A\u002A*%
X2400000Y-2955000D02*
X2400000Y-3055000D01*
X3650000Y-1555000D02*
X3650000Y-3605000D01*
X12400000Y-205000D02*
X4400000Y-205000D01*
X13150000Y-10805000D02*
X13150000Y-6405000D01*
X4470000Y-9555000D02*
X4370000Y-9555000D01*
X10140000Y-555000D02*
X10040000Y-555000D01*
X11050000Y-9555000D02*
X10950000Y-9555000D01*
X2400000Y-9555000D02*
X2700000Y-9555000D01*
X2400000Y-2205000D02*
X2400000Y-2305000D01*
X5440000Y-555000D02*
X5340000Y-555000D01*
X12900000Y-9555000D02*
X12600000Y-9555000D01*
X12900000Y-1455000D02*
X12900000Y-1555000D01*
X10110000Y-9555000D02*
X10010000Y-9555000D01*
X12900000Y-9555000D02*
X12900000Y-9255000D01*
X2400000Y-6955000D02*
X2400000Y-7055000D01*
X12900000Y-6955000D02*
X12900000Y-7055000D01*
X3650000Y-9805000D02*
X3650000Y-10055000D01*
X13150000Y-955000D02*
X13150000Y-3705000D01*
X7320000Y-555000D02*
X7220000Y-555000D01*
X3300000Y-555000D02*
X3400000Y-555000D01*
X9170000Y-9555000D02*
X9070000Y-9555000D01*
X3650000Y-10805000D02*
X3650000Y-6405000D01*
X10650000Y-7595000D02*
X6150000Y-7595000D01*
X6380000Y-555000D02*
X6280000Y-555000D01*
X10650000Y-2515000D02*
X6150000Y-2515000D01*
X12465000Y-3655000D02*
X12465000Y-3955000D01*
X2400000Y-6205000D02*
X2400000Y-6305000D01*
X9200000Y-555000D02*
X9100000Y-555000D01*
X12900000Y-8455000D02*
X12900000Y-8555000D01*
X2400000Y-3705000D02*
X2400000Y-3805000D01*
X2400000Y-9555000D02*
X2400000Y-9255000D01*
X4335000Y-3655000D02*
X4335000Y-6455000D01*
X8230000Y-9555000D02*
X8130000Y-9555000D01*
X11990000Y-9555000D02*
X11890000Y-9555000D01*
X12900000Y-7705000D02*
X12900000Y-7805000D01*
X12900000Y-2205000D02*
X12900000Y-2305000D01*
X6200000Y-1755000D02*
X10700000Y-1755000D01*
X4500000Y-555000D02*
X4400000Y-555000D01*
X2400000Y-1455000D02*
X2400000Y-1555000D01*
X10700000Y-8255000D02*
X6200000Y-8255000D01*
X12900000Y-2205000D02*
X12900000Y-2305000D01*
X3650000Y-955000D02*
X3650000Y-1555000D01*
X2400000Y-8455000D02*
X2400000Y-8555000D01*
X12020000Y-555000D02*
X11920000Y-555000D01*
X3300000Y-9555000D02*
X3400000Y-9555000D01*
X12400000Y-11555000D02*
X4400000Y-11555000D01*
X7290000Y-9555000D02*
X7190000Y-9555000D01*
X12465000Y-6455000D02*
X12465000Y-6155000D01*
X11080000Y-555000D02*
X10980000Y-555000D01*
X12900000Y-2955000D02*
X12900000Y-3055000D01*
X8260000Y-555000D02*
X8160000Y-555000D01*
X2400000Y-2205000D02*
X2400000Y-2305000D01*
X2400000Y-555000D02*
X2400000Y-855000D01*
X5410000Y-9555000D02*
X5310000Y-9555000D01*
X2400000Y-7705000D02*
X2400000Y-7805000D01*
X6350000Y-9555000D02*
X6250000Y-9555000D01*
X2400000Y-555000D02*
X2700000Y-555000D01*
X12900000Y-855000D02*
G75*
G03*
X12600000Y-555000I-300000J0D01*
G01*
X13150000Y-955000D02*
G75*
G03*
X12400000Y-205000I-750000J0D01*
G01*
X12400000Y-11555000D02*
G75*
G03*
X13150000Y-10805000I0J750000D01*
G01*
X4400000Y-205000D02*
G75*
G03*
X3650000Y-955000I0J-750000D01*
G01*
X3650000Y-10805000D02*
G75*
G03*
X4400000Y-11555000I750000J0D01*
G01*
X12464997Y-6154997D02*
G75*
G03*
X12757922Y-5912088I-664997J1099997D01*
G01*
X12757925Y-4197909D02*
G75*
G03*
X12465000Y-3955000I-957922J-857088D01*
G01*
X16855000Y-10810000D02*
X16855000Y-6410000D01*
X27605000Y-560000D02*
X27305000Y-560000D01*
X16855000Y-960000D02*
X16855000Y-3710000D01*
X18015000Y-9560000D02*
X18115000Y-9560000D01*
X23855000Y-2520000D02*
X19355000Y-2520000D01*
X19895000Y-9560000D02*
X19995000Y-9560000D01*
X17605000Y-11560000D02*
X25605000Y-11560000D01*
X26355000Y-9810000D02*
X26355000Y-10060000D01*
X17605000Y-210000D02*
X25605000Y-210000D01*
X17105000Y-2960000D02*
X17105000Y-3060000D01*
X17540000Y-6460000D02*
X17540000Y-6160000D01*
X24565000Y-560000D02*
X24665000Y-560000D01*
X27605000Y-3710000D02*
X27605000Y-3810000D01*
X17985000Y-560000D02*
X18085000Y-560000D01*
X19355000Y-8310000D02*
X23855000Y-8310000D01*
X27605000Y-6210000D02*
X27605000Y-6310000D01*
X17540000Y-3660000D02*
X17540000Y-3960000D01*
X27605000Y-8460000D02*
X27605000Y-8560000D01*
X27605000Y-2210000D02*
X27605000Y-2310000D01*
X21775000Y-9560000D02*
X21875000Y-9560000D01*
X17105000Y-6960000D02*
X17105000Y-7060000D01*
X17105000Y-8460000D02*
X17105000Y-8560000D01*
X27605000Y-6960000D02*
X27605000Y-7060000D01*
X20805000Y-560000D02*
X20905000Y-560000D01*
X21745000Y-560000D02*
X21845000Y-560000D01*
X23655000Y-9560000D02*
X23755000Y-9560000D01*
X17105000Y-2210000D02*
X17105000Y-2310000D01*
X22685000Y-560000D02*
X22785000Y-560000D01*
X17105000Y-7710000D02*
X17105000Y-7810000D01*
X27605000Y-2960000D02*
X27605000Y-3060000D01*
X23855000Y-7600000D02*
X19355000Y-7600000D01*
X27605000Y-2210000D02*
X27605000Y-2310000D01*
X26705000Y-560000D02*
X26605000Y-560000D01*
X23855000Y-1810000D02*
X19355000Y-1810000D01*
X26355000Y-10810000D02*
X26355000Y-6410000D01*
X26355000Y-960000D02*
X26355000Y-1560000D01*
X27605000Y-560000D02*
X27605000Y-860000D01*
X20835000Y-9560000D02*
X20935000Y-9560000D01*
X27605000Y-1460000D02*
X27605000Y-1560000D01*
X27605000Y-9560000D02*
X27605000Y-9260000D01*
X25535000Y-9560000D02*
X25635000Y-9560000D01*
X26355000Y-1560000D02*
X26355000Y-3610000D01*
X25670000Y-3660000D02*
X25670000Y-6460000D01*
X22715000Y-9560000D02*
X22815000Y-9560000D01*
X25505000Y-560000D02*
X25605000Y-560000D01*
X18925000Y-560000D02*
X19025000Y-560000D01*
X27605000Y-9560000D02*
X27305000Y-9560000D01*
X18955000Y-9560000D02*
X19055000Y-9560000D01*
X19865000Y-560000D02*
X19965000Y-560000D01*
X17105000Y-9560000D02*
X17405000Y-9560000D01*
X26705000Y-9560000D02*
X26605000Y-9560000D01*
X17105000Y-9560000D02*
X17105000Y-9260000D01*
X23625000Y-560000D02*
X23725000Y-560000D01*
X17105000Y-2210000D02*
X17105000Y-2310000D01*
X27605000Y-7710000D02*
X27605000Y-7810000D01*
X17105000Y-1460000D02*
X17105000Y-1560000D01*
X24595000Y-9560000D02*
X24695000Y-9560000D01*
X16855000Y-10810000D02*
G75*
G03*
X17605000Y-11560000I750000J0D01*
G01*
X17247078Y-5917088D02*
G75*
G03*
X17540003Y-6159997I957922J857088D01*
G01*
X17540000Y-3960000D02*
G75*
G03*
X17247075Y-4202909I664997J-1099997D01*
G01*
X25605000Y-11560000D02*
G75*
G03*
X26355000Y-10810000I0J750000D01*
G01*
X17605000Y-210000D02*
G75*
G03*
X16855000Y-960000I0J-750000D01*
G01*
X17405000Y-560000D02*
G75*
G03*
X17105000Y-860000I0J-300000D01*
G01*
X26355000Y-960000D02*
G75*
G03*
X25605000Y-210000I-750000J0D01*
G01*
%TO.C,THONK*%
X12900000Y-19345000D02*
X12900000Y-19445000D01*
X7320000Y-12945000D02*
X7220000Y-12945000D01*
X17100000Y-15585000D02*
X17100000Y-15485000D01*
X27600000Y-20335000D02*
X27600000Y-20235000D01*
X12900000Y-20095000D02*
X12900000Y-20195000D01*
X8230000Y-21945000D02*
X8130000Y-21945000D01*
X25500000Y-21985000D02*
X25600000Y-21985000D01*
X27600000Y-21985000D02*
X27600000Y-21685000D01*
X20830000Y-12985000D02*
X20930000Y-12985000D01*
X11080000Y-12945000D02*
X10980000Y-12945000D01*
X27600000Y-16335000D02*
X27600000Y-16235000D01*
X12900000Y-13845000D02*
X12900000Y-13945000D01*
X27600000Y-12985000D02*
X27300000Y-12985000D01*
X18920000Y-21985000D02*
X19020000Y-21985000D01*
X11050000Y-21945000D02*
X10950000Y-21945000D01*
X2400000Y-21945000D02*
X2700000Y-21945000D01*
X27600000Y-21985000D02*
X27300000Y-21985000D01*
X19860000Y-21985000D02*
X19960000Y-21985000D01*
X2400000Y-20095000D02*
X2400000Y-20195000D01*
X23620000Y-21985000D02*
X23720000Y-21985000D01*
X12465000Y-14905000D02*
X12465000Y-16345000D01*
X4500000Y-12945000D02*
X4400000Y-12945000D01*
X2400000Y-16095000D02*
X2400000Y-16195000D01*
X17980000Y-21985000D02*
X18080000Y-21985000D01*
X27600000Y-14085000D02*
X27600000Y-13985000D01*
X2400000Y-15345000D02*
X2400000Y-15445000D01*
X5410000Y-21945000D02*
X5310000Y-21945000D01*
X12900000Y-20845000D02*
X12900000Y-20945000D01*
X7290000Y-21945000D02*
X7190000Y-21945000D01*
X6380000Y-12945000D02*
X6280000Y-12945000D01*
X24560000Y-21985000D02*
X24660000Y-21985000D01*
X27600000Y-21085000D02*
X27600000Y-20985000D01*
X17100000Y-19585000D02*
X17100000Y-19485000D01*
X2400000Y-12945000D02*
X2700000Y-12945000D01*
X26700000Y-21985000D02*
X26600000Y-21985000D01*
X12900000Y-15345000D02*
X12900000Y-15445000D01*
X5440000Y-12945000D02*
X5340000Y-12945000D01*
X12465000Y-19985000D02*
X4335000Y-19985000D01*
X18010000Y-12985000D02*
X18110000Y-12985000D01*
X2400000Y-21945000D02*
X2400000Y-21645000D01*
X12900000Y-14595000D02*
X12900000Y-14695000D01*
X2400000Y-12945000D02*
X2400000Y-13245000D01*
X2400000Y-13845000D02*
X2400000Y-13945000D01*
X12900000Y-21945000D02*
X12900000Y-21645000D01*
X22710000Y-12985000D02*
X22810000Y-12985000D01*
X22680000Y-21985000D02*
X22780000Y-21985000D01*
X12900000Y-14595000D02*
X12900000Y-14695000D01*
X2400000Y-20845000D02*
X2400000Y-20945000D01*
X6350000Y-21945000D02*
X6250000Y-21945000D01*
X4335000Y-14905000D02*
X12465000Y-14905000D01*
X27600000Y-19585000D02*
X27600000Y-19485000D01*
X17100000Y-20335000D02*
X17100000Y-20235000D01*
X25530000Y-12985000D02*
X25630000Y-12985000D01*
X12465000Y-19985000D02*
X12465000Y-18545000D01*
X25665000Y-20025000D02*
X25665000Y-14945000D01*
X2400000Y-14595000D02*
X2400000Y-14695000D01*
X17535000Y-14945000D02*
X25665000Y-14945000D01*
X8260000Y-12945000D02*
X8160000Y-12945000D01*
X21740000Y-21985000D02*
X21840000Y-21985000D01*
X4335000Y-14905000D02*
X4335000Y-19985000D01*
X17100000Y-12985000D02*
X17100000Y-13285000D01*
X23650000Y-12985000D02*
X23750000Y-12985000D01*
X21770000Y-12985000D02*
X21870000Y-12985000D01*
X17535000Y-14945000D02*
X17535000Y-16385000D01*
X3300000Y-21945000D02*
X3400000Y-21945000D01*
X27600000Y-18835000D02*
X27600000Y-18735000D01*
X2400000Y-18595000D02*
X2400000Y-18695000D01*
X9200000Y-12945000D02*
X9100000Y-12945000D01*
X3300000Y-12945000D02*
X3400000Y-12945000D01*
X24590000Y-12985000D02*
X24690000Y-12985000D01*
X18950000Y-12985000D02*
X19050000Y-12985000D01*
X17100000Y-14835000D02*
X17100000Y-14735000D01*
X10110000Y-21945000D02*
X10010000Y-21945000D01*
X27600000Y-14835000D02*
X27600000Y-14735000D01*
X10140000Y-12945000D02*
X10040000Y-12945000D01*
X19890000Y-12985000D02*
X19990000Y-12985000D01*
X25665000Y-20025000D02*
X17535000Y-20025000D01*
X27600000Y-20335000D02*
X27600000Y-20235000D01*
X20800000Y-21985000D02*
X20900000Y-21985000D01*
X4470000Y-21945000D02*
X4370000Y-21945000D01*
X27600000Y-12985000D02*
X27600000Y-13285000D01*
X17535000Y-20025000D02*
X17535000Y-18585000D01*
X26700000Y-12985000D02*
X26600000Y-12985000D01*
X12900000Y-21945000D02*
X12600000Y-21945000D01*
X2400000Y-19345000D02*
X2400000Y-19445000D01*
X17100000Y-12985000D02*
X17400000Y-12985000D01*
X17100000Y-14085000D02*
X17100000Y-13985000D01*
X27600000Y-15585000D02*
X27600000Y-15485000D01*
X12020000Y-12945000D02*
X11920000Y-12945000D01*
X9170000Y-21945000D02*
X9070000Y-21945000D01*
X11990000Y-21945000D02*
X11890000Y-21945000D01*
X17100000Y-21085000D02*
X17100000Y-20985000D01*
X17100000Y-20335000D02*
X17100000Y-20235000D01*
X2400000Y-14595000D02*
X2400000Y-14695000D01*
X12757925Y-16587909D02*
G75*
G03*
X12465000Y-16345000I-957922J-857088D01*
G01*
X17100000Y-21685000D02*
G75*
G03*
X17400000Y-21985000I300000J0D01*
G01*
X12900000Y-13245000D02*
G75*
G03*
X12600000Y-12945000I-300000J0D01*
G01*
X12464997Y-18544997D02*
G75*
G03*
X12757922Y-18302088I-664997J1099997D01*
G01*
X17242075Y-18342091D02*
G75*
G03*
X17535000Y-18585000I957922J857088D01*
G01*
X17535003Y-16385003D02*
G75*
G03*
X17242078Y-16627912I664997J-1099997D01*
G01*
%TO.C,REF\u002A\u002A*%
X16550000Y-10050000D02*
X16550000Y-10350000D01*
X16550000Y-10050000D02*
X16250000Y-10050000D01*
X13450000Y-12450000D02*
X13750000Y-12450000D01*
X13450000Y-12450000D02*
X13450000Y-12150000D01*
X15915762Y-10061985D02*
G75*
G03*
X14850000Y-9750000I-932779J-1210086D01*
G01*
X14084238Y-12438015D02*
G75*
G03*
X15000000Y-12750000I915762J1188015D01*
G01*
X16500000Y-11400000D02*
G75*
G03*
X16500000Y-11100000I-1500069J150000D01*
G01*
X13500254Y-11097483D02*
G75*
G03*
X13500000Y-11400000I1499692J-152518D01*
G01*
%TD*%
M02*
