%TF.GenerationSoftware,KiCad,Pcbnew,(6.0.2)*%
%TF.CreationDate,2022-07-09T21:30:07+01:00*%
%TF.ProjectId,universal pcb,756e6976-6572-4736-916c-207063622e6b,rev?*%
%TF.SameCoordinates,Original*%
%TF.FileFunction,Legend,Bot*%
%TF.FilePolarity,Positive*%
%FSLAX46Y46*%
G04 Gerber Fmt 4.6, Leading zero omitted, Abs format (unit mm)*
G04 Created by KiCad (PCBNEW (6.0.2)) date 2022-07-09 21:30:07*
%MOMM*%
%LPD*%
G01*
G04 APERTURE LIST*
%ADD10C,0.100000*%
%ADD11C,0.120000*%
G04 APERTURE END LIST*
D10*
X7150714Y-15619428D02*
X7150714Y-16105142D01*
X7179285Y-16162285D01*
X7207857Y-16190857D01*
X7264999Y-16219428D01*
X7350714Y-16219428D01*
X7407857Y-16190857D01*
X7150714Y-15990857D02*
X7207857Y-16019428D01*
X7322142Y-16019428D01*
X7379285Y-15990857D01*
X7407857Y-15962285D01*
X7436428Y-15905142D01*
X7436428Y-15733714D01*
X7407857Y-15676571D01*
X7379285Y-15648000D01*
X7322142Y-15619428D01*
X7207857Y-15619428D01*
X7150714Y-15648000D01*
X6864999Y-16019428D02*
X6864999Y-15619428D01*
X6864999Y-15733714D02*
X6836428Y-15676571D01*
X6807857Y-15648000D01*
X6750714Y-15619428D01*
X6693571Y-15619428D01*
X6264999Y-15990857D02*
X6322142Y-16019428D01*
X6436428Y-16019428D01*
X6493571Y-15990857D01*
X6522142Y-15933714D01*
X6522142Y-15705142D01*
X6493571Y-15648000D01*
X6436428Y-15619428D01*
X6322142Y-15619428D01*
X6264999Y-15648000D01*
X6236428Y-15705142D01*
X6236428Y-15762285D01*
X6522142Y-15819428D01*
X5750714Y-15990857D02*
X5807857Y-16019428D01*
X5922142Y-16019428D01*
X5979285Y-15990857D01*
X6007857Y-15933714D01*
X6007857Y-15705142D01*
X5979285Y-15648000D01*
X5922142Y-15619428D01*
X5807857Y-15619428D01*
X5750714Y-15648000D01*
X5722142Y-15705142D01*
X5722142Y-15762285D01*
X6007857Y-15819428D01*
X5465000Y-15619428D02*
X5465000Y-16019428D01*
X5465000Y-15676571D02*
X5436428Y-15648000D01*
X5379285Y-15619428D01*
X5293571Y-15619428D01*
X5236428Y-15648000D01*
X5207857Y-15705142D01*
X5207857Y-16019428D01*
X4493571Y-15390857D02*
X5007857Y-16162285D01*
X4207857Y-16019428D02*
X4265000Y-15990857D01*
X4293571Y-15933714D01*
X4293571Y-15419428D01*
X3750714Y-15990857D02*
X3807857Y-16019428D01*
X3922142Y-16019428D01*
X3979285Y-15990857D01*
X4007857Y-15933714D01*
X4007857Y-15705142D01*
X3979285Y-15648000D01*
X3922142Y-15619428D01*
X3807857Y-15619428D01*
X3750714Y-15648000D01*
X3722142Y-15705142D01*
X3722142Y-15762285D01*
X4007857Y-15819428D01*
X3207857Y-16019428D02*
X3207857Y-15419428D01*
X3207857Y-15990857D02*
X3264999Y-16019428D01*
X3379285Y-16019428D01*
X3436428Y-15990857D01*
X3464999Y-15962285D01*
X3493571Y-15905142D01*
X3493571Y-15733714D01*
X3464999Y-15676571D01*
X3436428Y-15648000D01*
X3379285Y-15619428D01*
X3264999Y-15619428D01*
X3207857Y-15648000D01*
X4036428Y-9450856D02*
X3722142Y-9450856D01*
X4036428Y-9850856D01*
X3722142Y-9850856D01*
X3522142Y-9307999D02*
X3493571Y-9279428D01*
X3436428Y-9250856D01*
X3293571Y-9250856D01*
X3236428Y-9279428D01*
X3207857Y-9307999D01*
X3179285Y-9365142D01*
X3179285Y-9422285D01*
X3207857Y-9507999D01*
X3550714Y-9850856D01*
X3179285Y-9850856D01*
X4036428Y-12318284D02*
X3722142Y-11918284D01*
X4036428Y-11918284D02*
X3722142Y-12318284D01*
X3236428Y-11918284D02*
X3236428Y-12318284D01*
X3379285Y-11689713D02*
X3522142Y-12118284D01*
X3150714Y-12118284D01*
X26849285Y-12287714D02*
X26535000Y-11887714D01*
X26849285Y-11887714D02*
X26535000Y-12287714D01*
X26363571Y-11687714D02*
X25992142Y-11687714D01*
X26192142Y-11916286D01*
X26106428Y-11916286D01*
X26049285Y-11944857D01*
X26020714Y-11973428D01*
X25992142Y-12030571D01*
X25992142Y-12173428D01*
X26020714Y-12230571D01*
X26049285Y-12259143D01*
X26106428Y-12287714D01*
X26277857Y-12287714D01*
X26335000Y-12259143D01*
X26363571Y-12230571D01*
X4036428Y-7383428D02*
X3722142Y-6983428D01*
X4036428Y-6983428D02*
X3722142Y-7383428D01*
X3522142Y-6840571D02*
X3493571Y-6812000D01*
X3436428Y-6783428D01*
X3293571Y-6783428D01*
X3236428Y-6812000D01*
X3207857Y-6840571D01*
X3179285Y-6897714D01*
X3179285Y-6954857D01*
X3207857Y-7040571D01*
X3550714Y-7383428D01*
X3179285Y-7383428D01*
X26849285Y-8186572D02*
X26706428Y-8586572D01*
X26563571Y-8186572D02*
X26706428Y-8586572D01*
X26763571Y-8729429D01*
X26792142Y-8758001D01*
X26849285Y-8786572D01*
X26020714Y-8586572D02*
X26363571Y-8586572D01*
X26192142Y-8586572D02*
X26192142Y-7986572D01*
X26249285Y-8072286D01*
X26306428Y-8129429D01*
X26363571Y-8158001D01*
X26792142Y-11021428D02*
X26792142Y-10421428D01*
X26792142Y-10650000D02*
X26735000Y-10621428D01*
X26620714Y-10621428D01*
X26563571Y-10650000D01*
X26535000Y-10678571D01*
X26506428Y-10735714D01*
X26506428Y-10907142D01*
X26535000Y-10964285D01*
X26563571Y-10992857D01*
X26620714Y-11021428D01*
X26735000Y-11021428D01*
X26792142Y-10992857D01*
X26163571Y-11021428D02*
X26220714Y-10992857D01*
X26249285Y-10935714D01*
X26249285Y-10421428D01*
X25677857Y-10621428D02*
X25677857Y-11021428D01*
X25935000Y-10621428D02*
X25935000Y-10935714D01*
X25906428Y-10992857D01*
X25849285Y-11021428D01*
X25763571Y-11021428D01*
X25706428Y-10992857D01*
X25677857Y-10964285D01*
X25163571Y-10992857D02*
X25220714Y-11021428D01*
X25335000Y-11021428D01*
X25392142Y-10992857D01*
X25420714Y-10935714D01*
X25420714Y-10707142D01*
X25392142Y-10650000D01*
X25335000Y-10621428D01*
X25220714Y-10621428D01*
X25163571Y-10650000D01*
X25135000Y-10707142D01*
X25135000Y-10764285D01*
X25420714Y-10821428D01*
X26849285Y-7352858D02*
X26535000Y-6952858D01*
X26849285Y-6952858D02*
X26535000Y-7352858D01*
X25992142Y-7352858D02*
X26335000Y-7352858D01*
X26163571Y-7352858D02*
X26163571Y-6752858D01*
X26220714Y-6838572D01*
X26277857Y-6895715D01*
X26335000Y-6924287D01*
X26849285Y-9420286D02*
X26535000Y-9420286D01*
X26849285Y-9820286D01*
X26535000Y-9820286D01*
X25992142Y-9820286D02*
X26335000Y-9820286D01*
X26163571Y-9820286D02*
X26163571Y-9220286D01*
X26220714Y-9306000D01*
X26277857Y-9363143D01*
X26335000Y-9391715D01*
X4350714Y-11084570D02*
X4350714Y-10684570D01*
X4350714Y-10798856D02*
X4322142Y-10741713D01*
X4293571Y-10713142D01*
X4236428Y-10684570D01*
X4179285Y-10684570D01*
X3750714Y-11055999D02*
X3807857Y-11084570D01*
X3922142Y-11084570D01*
X3979285Y-11055999D01*
X4007857Y-10998856D01*
X4007857Y-10770284D01*
X3979285Y-10713142D01*
X3922142Y-10684570D01*
X3807857Y-10684570D01*
X3750714Y-10713142D01*
X3722142Y-10770284D01*
X3722142Y-10827427D01*
X4007857Y-10884570D01*
X3207857Y-11084570D02*
X3207857Y-10484570D01*
X3207857Y-11055999D02*
X3265000Y-11084570D01*
X3379285Y-11084570D01*
X3436428Y-11055999D01*
X3465000Y-11027427D01*
X3493571Y-10970284D01*
X3493571Y-10798856D01*
X3465000Y-10741713D01*
X3436428Y-10713142D01*
X3379285Y-10684570D01*
X3265000Y-10684570D01*
X3207857Y-10713142D01*
X4036428Y-14385712D02*
X3722142Y-14385712D01*
X4036428Y-14785712D01*
X3722142Y-14785712D01*
X3236428Y-14385712D02*
X3236428Y-14785712D01*
X3379285Y-14157141D02*
X3522142Y-14585712D01*
X3150714Y-14585712D01*
X4007857Y-8217142D02*
X3865000Y-8617142D01*
X3722142Y-8217142D02*
X3865000Y-8617142D01*
X3922142Y-8759999D01*
X3950714Y-8788571D01*
X4007857Y-8817142D01*
X3522142Y-8074285D02*
X3493571Y-8045714D01*
X3436428Y-8017142D01*
X3293571Y-8017142D01*
X3236428Y-8045714D01*
X3207857Y-8074285D01*
X3179285Y-8131428D01*
X3179285Y-8188571D01*
X3207857Y-8274285D01*
X3550714Y-8617142D01*
X3179285Y-8617142D01*
X26535000Y-15588858D02*
X26535000Y-16074572D01*
X26563571Y-16131715D01*
X26592142Y-16160287D01*
X26649285Y-16188858D01*
X26735000Y-16188858D01*
X26792142Y-16160287D01*
X26535000Y-15960287D02*
X26592142Y-15988858D01*
X26706428Y-15988858D01*
X26763571Y-15960287D01*
X26792142Y-15931715D01*
X26820714Y-15874572D01*
X26820714Y-15703144D01*
X26792142Y-15646001D01*
X26763571Y-15617430D01*
X26706428Y-15588858D01*
X26592142Y-15588858D01*
X26535000Y-15617430D01*
X26249285Y-15588858D02*
X26249285Y-15988858D01*
X26249285Y-15646001D02*
X26220714Y-15617430D01*
X26163571Y-15588858D01*
X26077857Y-15588858D01*
X26020714Y-15617430D01*
X25992142Y-15674572D01*
X25992142Y-15988858D01*
X25449285Y-15988858D02*
X25449285Y-15388858D01*
X25449285Y-15960287D02*
X25506428Y-15988858D01*
X25620714Y-15988858D01*
X25677857Y-15960287D01*
X25706428Y-15931715D01*
X25735000Y-15874572D01*
X25735000Y-15703144D01*
X25706428Y-15646001D01*
X25677857Y-15617430D01*
X25620714Y-15588858D01*
X25506428Y-15588858D01*
X25449285Y-15617430D01*
X26849285Y-14355142D02*
X26535000Y-14355142D01*
X26849285Y-14755142D01*
X26535000Y-14755142D01*
X26363571Y-14155142D02*
X25992142Y-14155142D01*
X26192142Y-14383714D01*
X26106428Y-14383714D01*
X26049285Y-14412285D01*
X26020714Y-14440856D01*
X25992142Y-14497999D01*
X25992142Y-14640856D01*
X26020714Y-14697999D01*
X26049285Y-14726571D01*
X26106428Y-14755142D01*
X26277857Y-14755142D01*
X26335000Y-14726571D01*
X26363571Y-14697999D01*
X4007857Y-13151998D02*
X3865000Y-13551998D01*
X3722142Y-13151998D02*
X3865000Y-13551998D01*
X3922142Y-13694855D01*
X3950714Y-13723427D01*
X4007857Y-13751998D01*
X3236428Y-13151998D02*
X3236428Y-13551998D01*
X3379285Y-12923427D02*
X3522142Y-13351998D01*
X3150714Y-13351998D01*
X26849285Y-13121428D02*
X26706428Y-13521428D01*
X26563571Y-13121428D02*
X26706428Y-13521428D01*
X26763571Y-13664285D01*
X26792142Y-13692857D01*
X26849285Y-13721428D01*
X26392142Y-12921428D02*
X26020714Y-12921428D01*
X26220714Y-13150000D01*
X26135000Y-13150000D01*
X26077857Y-13178571D01*
X26049285Y-13207142D01*
X26020714Y-13264285D01*
X26020714Y-13407142D01*
X26049285Y-13464285D01*
X26077857Y-13492857D01*
X26135000Y-13521428D01*
X26306428Y-13521428D01*
X26363571Y-13492857D01*
X26392142Y-13464285D01*
D11*
%TO.C,REF\u002A\u002A*%
X2400000Y-21470000D02*
X140000Y-21470000D01*
X2400000Y-1090000D02*
X2400000Y-21470000D01*
X2400000Y-1090000D02*
X140000Y-1090000D01*
X140000Y-1090000D02*
X140000Y-21470000D01*
X29860000Y-21470000D02*
X27600000Y-21470000D01*
X27600000Y-1090000D02*
X27600000Y-21470000D01*
X29860000Y-1090000D02*
X27600000Y-1090000D01*
X29860000Y-1090000D02*
X29860000Y-21470000D01*
%TD*%
M02*
