%TF.GenerationSoftware,KiCad,Pcbnew,(6.0.2)*%
%TF.CreationDate,2022-07-09T21:30:07+01:00*%
%TF.ProjectId,universal pcb,756e6976-6572-4736-916c-207063622e6b,rev?*%
%TF.SameCoordinates,Original*%
%TF.FileFunction,Soldermask,Bot*%
%TF.FilePolarity,Negative*%
%FSLAX46Y46*%
G04 Gerber Fmt 4.6, Leading zero omitted, Abs format (unit mm)*
G04 Created by KiCad (PCBNEW (6.0.2)) date 2022-07-09 21:30:07*
%MOMM*%
%LPD*%
G01*
G04 APERTURE LIST*
G04 Aperture macros list*
%AMFreePoly0*
4,1,33,0.278115,1.275951,0.450000,1.199423,0.602218,1.088830,0.728115,0.949007,0.822191,0.786063,0.880333,0.607121,0.900000,0.420000,0.900000,-0.420000,0.880333,-0.607121,0.822191,-0.786063,0.728115,-0.949007,0.602218,-1.088830,0.450000,-1.199423,0.278115,-1.275951,0.094076,-1.315070,-0.094076,-1.315070,-0.278115,-1.275951,-0.450000,-1.199423,-0.602218,-1.088830,-0.728115,-0.949007,
-0.822191,-0.786063,-0.880333,-0.607121,-0.900000,-0.420000,-0.900000,0.420000,-0.880333,0.607121,-0.822191,0.786063,-0.728115,0.949007,-0.602218,1.088830,-0.450000,1.199423,-0.278115,1.275951,-0.094076,1.315070,0.094076,1.315070,0.278115,1.275951,0.278115,1.275951,$1*%
%AMFreePoly1*
4,1,33,0.278115,1.240951,0.450000,1.164423,0.602218,1.053830,0.728115,0.914007,0.822191,0.751063,0.880333,0.572121,0.900000,0.385000,0.900000,-0.385000,0.880333,-0.572121,0.822191,-0.751063,0.728115,-0.914007,0.602218,-1.053830,0.450000,-1.164423,0.278115,-1.240951,0.094076,-1.280070,-0.094076,-1.280070,-0.285000,-1.240000,-0.285000,-0.910828,-0.300000,-0.904615,-0.424264,-0.809264,
-0.519615,-0.685000,-0.579555,-0.540291,-0.600000,-0.385000,-0.600000,0.385000,-0.579555,0.540291,-0.519615,0.685000,-0.424264,0.809264,-0.300000,0.904615,-0.285000,0.910828,-0.285000,1.240000,-0.094076,1.280070,0.094076,1.280070,0.278115,1.240951,0.278115,1.240951,$1*%
%AMFreePoly2*
4,1,33,0.285000,1.240000,0.285000,0.910828,0.300000,0.904615,0.424264,0.809264,0.519615,0.685000,0.579555,0.540291,0.600000,0.385000,0.600000,-0.385000,0.579555,-0.540291,0.519615,-0.685000,0.424264,-0.809264,0.300000,-0.904615,0.285000,-0.910828,0.285000,-1.240000,0.094076,-1.280070,-0.094076,-1.280070,-0.278115,-1.240951,-0.450000,-1.164423,-0.602218,-1.053830,-0.728115,-0.914007,
-0.822191,-0.751063,-0.880333,-0.572121,-0.900000,-0.385000,-0.900000,0.385000,-0.880333,0.572121,-0.822191,0.751063,-0.728115,0.914007,-0.602218,1.053830,-0.450000,1.164423,-0.278115,1.240951,-0.094076,1.280070,0.094076,1.280070,0.285000,1.240000,0.285000,1.240000,$1*%
%AMFreePoly3*
4,1,33,-0.002237,0.887946,0.166826,0.836742,0.280000,0.750000,0.280000,0.527899,0.300000,0.519615,0.424264,0.424264,0.519615,0.300000,0.579555,0.155291,0.600000,0.000000,0.579555,-0.155291,0.519615,-0.300000,0.424264,-0.424264,0.300000,-0.519615,0.280000,-0.527899,0.280000,-0.780000,0.078042,-0.868969,-0.096054,-0.898884,-0.272363,-0.887946,-0.441426,-0.836742,-0.594175,-0.748018,
-0.722417,-0.626534,-0.819271,-0.478806,-0.879544,-0.312759,-0.900000,-0.137300,-0.900000,0.137300,-0.894152,0.231571,-0.852165,0.403156,-0.771831,0.560480,-0.657460,0.695103,-0.515186,0.799805,-0.352642,0.868969,-0.178546,0.898884,-0.002237,0.887946,-0.002237,0.887946,$1*%
G04 Aperture macros list end*
%ADD10C,1.800000*%
%ADD11O,1.800000X2.570000*%
%ADD12FreePoly0,270.000000*%
%ADD13FreePoly1,0.000000*%
%ADD14C,1.700000*%
%ADD15FreePoly0,90.000000*%
%ADD16FreePoly2,0.000000*%
%ADD17O,3.000000X1.800000*%
%ADD18FreePoly3,0.000000*%
%ADD19FreePoly3,180.000000*%
%ADD20C,1.524000*%
%ADD21R,1.700000X1.700000*%
%ADD22O,1.700000X1.700000*%
G04 APERTURE END LIST*
D10*
%TO.C,THONKISWITCHPOT\u002A\u002A*%
X5900000Y-12555000D03*
X8400000Y-12555000D03*
X10900000Y-12555000D03*
D11*
X5860000Y-5055000D03*
X8400000Y-5055000D03*
X10950000Y-5055000D03*
D12*
X11360000Y-5055000D03*
D13*
X13705000Y-5055000D03*
X3095000Y-5055000D03*
D14*
X11700000Y-2755000D03*
X5200000Y-2755000D03*
X11700000Y-7255000D03*
X5200000Y-7255000D03*
%TD*%
D10*
%TO.C,THONKISWITCHPOT\u002A\u002A*%
X24105000Y-12560000D03*
X21605000Y-12560000D03*
X19105000Y-12560000D03*
D11*
X24145000Y-5060000D03*
X21605000Y-5060000D03*
X19055000Y-5060000D03*
D15*
X18645000Y-5060000D03*
D16*
X16300000Y-5060000D03*
X26910000Y-5060000D03*
D14*
X18355000Y-2810000D03*
X24855000Y-2810000D03*
X18355000Y-7310000D03*
X24855000Y-7310000D03*
%TD*%
D17*
%TO.C,THONK*%
X15000000Y-17445000D03*
D18*
X27000000Y-17445000D03*
D19*
X3000000Y-17445000D03*
D11*
X5860000Y-17445000D03*
X24140000Y-17485000D03*
X21600000Y-17485000D03*
X8400000Y-17445000D03*
X19050000Y-17485000D03*
D12*
X11360000Y-17445000D03*
D11*
X10950000Y-17445000D03*
D15*
X18640000Y-17485000D03*
%TD*%
D20*
%TO.C,REF\u002A\u002A*%
X14100000Y-10350000D03*
X15900000Y-12150000D03*
%TD*%
D21*
%TO.C,REF\u002A\u002A*%
X1270000Y-2360000D03*
D22*
X1270000Y-4900000D03*
X1270000Y-7440000D03*
X1270000Y-9980000D03*
X1270000Y-12520000D03*
X1270000Y-15060000D03*
X1270000Y-17600000D03*
X1270000Y-20140000D03*
%TD*%
%TO.C,REF\u002A\u002A*%
X28730000Y-20140000D03*
X28730000Y-17600000D03*
X28730000Y-15060000D03*
X28730000Y-12520000D03*
X28730000Y-9980000D03*
X28730000Y-7440000D03*
X28730000Y-4900000D03*
D21*
X28730000Y-2360000D03*
%TD*%
M02*
