M48
; DRILL file {KiCad (6.0.2)} date Sat Jul  9 21:30:01 2022
; FORMAT={-:-/ absolute / inch / decimal}
; #@! TF.CreationDate,2022-07-09T21:30:01+01:00
; #@! TF.GenerationSoftware,Kicad,Pcbnew,(6.0.2)
; #@! TF.FileFunction,Plated,1,2,PTH
FMAT,2
INCH
; #@! TA.AperFunction,Plated,PTH,ComponentDrill
T1C0.0300
; #@! TA.AperFunction,Plated,PTH,ComponentDrill
T2C0.0394
; #@! TA.AperFunction,Plated,PTH,ComponentDrill
T3C0.0433
; #@! TA.AperFunction,Plated,PTH,ComponentDrill
T4C0.0472
%
G90
G05
T1
X0.5551Y-0.4075
X0.626Y-0.4783
T2
X0.05Y-0.0929
X0.05Y-0.1929
X0.05Y-0.2929
X0.05Y-0.3929
X0.05Y-0.4929
X0.05Y-0.5929
X0.05Y-0.6929
X0.05Y-0.7929
X1.1311Y-0.0929
X1.1311Y-0.1929
X1.1311Y-0.2929
X1.1311Y-0.3929
X1.1311Y-0.4929
X1.1311Y-0.5929
X1.1311Y-0.6929
X1.1311Y-0.7929
T3
X0.2047Y-0.1085
X0.2047Y-0.2856
X0.4606Y-0.1085
X0.4606Y-0.2856
X0.7226Y-0.1106
X0.7226Y-0.2878
X0.9785Y-0.1106
X0.9785Y-0.2878
T4
X0.1181Y-0.6868
X0.2323Y-0.4943
X0.3307Y-0.4943
X0.4291Y-0.4943
X0.7522Y-0.4945
X0.8506Y-0.4945
X0.949Y-0.4945
X1.063Y-0.6868
T4
G00X0.1219Y-0.1839
M15
G01X0.1219Y-0.2142
M16
G05
G00X0.2307Y-0.1839
M15
G01X0.2307Y-0.2142
M16
G05
G00X0.2307Y-0.6717
M15
G01X0.2307Y-0.702
M16
G05
G00X0.3307Y-0.1839
M15
G01X0.3307Y-0.2142
M16
G05
G00X0.3307Y-0.6717
M15
G01X0.3307Y-0.702
M16
G05
G00X0.4311Y-0.1839
M15
G01X0.4311Y-0.2142
M16
G05
G00X0.4311Y-0.702
M15
G01X0.4311Y-0.6717
M16
G05
G00X0.4638Y-0.199
M15
G01X0.4307Y-0.199
M16
G05
G00X0.4638Y-0.6868
M15
G01X0.4307Y-0.6868
M16
G05
G00X0.5396Y-0.1839
M15
G01X0.5396Y-0.2142
M16
G05
G00X0.6142Y-0.6868
M15
G01X0.5669Y-0.6868
M16
G05
G00X0.6417Y-0.1841
M15
G01X0.6417Y-0.2144
M16
G05
G00X0.7173Y-0.6884
M15
G01X0.7504Y-0.6884
M16
G05
G00X0.7175Y-0.1992
M15
G01X0.7506Y-0.1992
M16
G05
G00X0.75Y-0.6732
M15
G01X0.75Y-0.7035
M16
G05
G00X0.7502Y-0.1841
M15
G01X0.7502Y-0.2144
M16
G05
G00X0.8504Y-0.7035
M15
G01X0.8504Y-0.6732
M16
G05
G00X0.8506Y-0.1841
M15
G01X0.8506Y-0.2144
M16
G05
G00X0.9504Y-0.7035
M15
G01X0.9504Y-0.6732
M16
G05
G00X0.9506Y-0.1841
M15
G01X0.9506Y-0.2144
M16
G05
G00X1.0594Y-0.1841
M15
G01X1.0594Y-0.2144
M16
G05
T0
M30
