%TF.GenerationSoftware,KiCad,Pcbnew,(6.0.2)*%
%TF.CreationDate,2022-07-09T21:30:07+01:00*%
%TF.ProjectId,universal pcb,756e6976-6572-4736-916c-207063622e6b,rev?*%
%TF.SameCoordinates,Original*%
%TF.FileFunction,Copper,L1,Top*%
%TF.FilePolarity,Positive*%
%FSLAX46Y46*%
G04 Gerber Fmt 4.6, Leading zero omitted, Abs format (unit mm)*
G04 Created by KiCad (PCBNEW (6.0.2)) date 2022-07-09 21:30:07*
%MOMM*%
%LPD*%
G01*
G04 APERTURE LIST*
G04 Aperture macros list*
%AMFreePoly0*
4,1,33,0.278115,1.275951,0.450000,1.199423,0.602218,1.088830,0.728115,0.949007,0.822191,0.786063,0.880333,0.607121,0.900000,0.420000,0.900000,-0.420000,0.880333,-0.607121,0.822191,-0.786063,0.728115,-0.949007,0.602218,-1.088830,0.450000,-1.199423,0.278115,-1.275951,0.094076,-1.315070,-0.094076,-1.315070,-0.278115,-1.275951,-0.450000,-1.199423,-0.602218,-1.088830,-0.728115,-0.949007,
-0.822191,-0.786063,-0.880333,-0.607121,-0.900000,-0.420000,-0.900000,0.420000,-0.880333,0.607121,-0.822191,0.786063,-0.728115,0.949007,-0.602218,1.088830,-0.450000,1.199423,-0.278115,1.275951,-0.094076,1.315070,0.094076,1.315070,0.278115,1.275951,0.278115,1.275951,$1*%
%AMFreePoly1*
4,1,33,0.278115,1.240951,0.450000,1.164423,0.602218,1.053830,0.728115,0.914007,0.822191,0.751063,0.880333,0.572121,0.900000,0.385000,0.900000,-0.385000,0.880333,-0.572121,0.822191,-0.751063,0.728115,-0.914007,0.602218,-1.053830,0.450000,-1.164423,0.278115,-1.240951,0.094076,-1.280070,-0.094076,-1.280070,-0.285000,-1.240000,-0.285000,-0.910828,-0.300000,-0.904615,-0.424264,-0.809264,
-0.519615,-0.685000,-0.579555,-0.540291,-0.600000,-0.385000,-0.600000,0.385000,-0.579555,0.540291,-0.519615,0.685000,-0.424264,0.809264,-0.300000,0.904615,-0.285000,0.910828,-0.285000,1.240000,-0.094076,1.280070,0.094076,1.280070,0.278115,1.240951,0.278115,1.240951,$1*%
%AMFreePoly2*
4,1,33,0.285000,1.240000,0.285000,0.910828,0.300000,0.904615,0.424264,0.809264,0.519615,0.685000,0.579555,0.540291,0.600000,0.385000,0.600000,-0.385000,0.579555,-0.540291,0.519615,-0.685000,0.424264,-0.809264,0.300000,-0.904615,0.285000,-0.910828,0.285000,-1.240000,0.094076,-1.280070,-0.094076,-1.280070,-0.278115,-1.240951,-0.450000,-1.164423,-0.602218,-1.053830,-0.728115,-0.914007,
-0.822191,-0.751063,-0.880333,-0.572121,-0.900000,-0.385000,-0.900000,0.385000,-0.880333,0.572121,-0.822191,0.751063,-0.728115,0.914007,-0.602218,1.053830,-0.450000,1.164423,-0.278115,1.240951,-0.094076,1.280070,0.094076,1.280070,0.285000,1.240000,0.285000,1.240000,$1*%
%AMFreePoly3*
4,1,33,-0.002237,0.887946,0.166826,0.836742,0.280000,0.750000,0.280000,0.527899,0.300000,0.519615,0.424264,0.424264,0.519615,0.300000,0.579555,0.155291,0.600000,0.000000,0.579555,-0.155291,0.519615,-0.300000,0.424264,-0.424264,0.300000,-0.519615,0.280000,-0.527899,0.280000,-0.780000,0.078042,-0.868969,-0.096054,-0.898884,-0.272363,-0.887946,-0.441426,-0.836742,-0.594175,-0.748018,
-0.722417,-0.626534,-0.819271,-0.478806,-0.879544,-0.312759,-0.900000,-0.137300,-0.900000,0.137300,-0.894152,0.231571,-0.852165,0.403156,-0.771831,0.560480,-0.657460,0.695103,-0.515186,0.799805,-0.352642,0.868969,-0.178546,0.898884,-0.002237,0.887946,-0.002237,0.887946,$1*%
G04 Aperture macros list end*
%TA.AperFunction,ComponentPad*%
%ADD10C,1.800000*%
%TD*%
%TA.AperFunction,ComponentPad*%
%ADD11O,1.800000X2.570000*%
%TD*%
%TA.AperFunction,ComponentPad*%
%ADD12FreePoly0,270.000000*%
%TD*%
%TA.AperFunction,ComponentPad*%
%ADD13FreePoly1,0.000000*%
%TD*%
%TA.AperFunction,ComponentPad*%
%ADD14C,1.700000*%
%TD*%
%TA.AperFunction,ComponentPad*%
%ADD15FreePoly0,90.000000*%
%TD*%
%TA.AperFunction,ComponentPad*%
%ADD16FreePoly2,0.000000*%
%TD*%
%TA.AperFunction,ComponentPad*%
%ADD17O,3.000000X1.800000*%
%TD*%
%TA.AperFunction,ComponentPad*%
%ADD18FreePoly3,0.000000*%
%TD*%
%TA.AperFunction,ComponentPad*%
%ADD19FreePoly3,180.000000*%
%TD*%
%TA.AperFunction,ComponentPad*%
%ADD20C,1.524000*%
%TD*%
%TA.AperFunction,SMDPad,CuDef*%
%ADD21R,0.900000X0.800000*%
%TD*%
%TA.AperFunction,ComponentPad*%
%ADD22R,1.700000X1.700000*%
%TD*%
%TA.AperFunction,ComponentPad*%
%ADD23O,1.700000X1.700000*%
%TD*%
%TA.AperFunction,Conductor*%
%ADD24C,0.250000*%
%TD*%
G04 APERTURE END LIST*
D10*
%TO.P,THONKISWITCHPOT\u002A\u002A,1*%
%TO.N,N/C*%
X5900000Y-12555000D03*
%TO.P,THONKISWITCHPOT\u002A\u002A,2*%
X8400000Y-12555000D03*
%TO.P,THONKISWITCHPOT\u002A\u002A,3*%
X10900000Y-12555000D03*
D11*
%TO.P,THONKISWITCHPOT\u002A\u002A,4*%
X5860000Y-5055000D03*
%TO.P,THONKISWITCHPOT\u002A\u002A,5*%
X8400000Y-5055000D03*
%TO.P,THONKISWITCHPOT\u002A\u002A,6*%
X10950000Y-5055000D03*
D12*
X11360000Y-5055000D03*
D13*
%TO.P,THONKISWITCHPOT\u002A\u002A,7*%
X13705000Y-5055000D03*
%TO.P,THONKISWITCHPOT\u002A\u002A,8*%
X3095000Y-5055000D03*
D14*
%TO.P,THONKISWITCHPOT\u002A\u002A,9*%
X11700000Y-2755000D03*
%TO.P,THONKISWITCHPOT\u002A\u002A,10*%
X5200000Y-2755000D03*
%TO.P,THONKISWITCHPOT\u002A\u002A,11*%
X11700000Y-7255000D03*
%TO.P,THONKISWITCHPOT\u002A\u002A,12*%
X5200000Y-7255000D03*
%TD*%
D10*
%TO.P,THONKISWITCHPOT\u002A\u002A,1*%
%TO.N,N/C*%
X24105000Y-12560000D03*
%TO.P,THONKISWITCHPOT\u002A\u002A,2*%
X21605000Y-12560000D03*
%TO.P,THONKISWITCHPOT\u002A\u002A,3*%
X19105000Y-12560000D03*
D11*
%TO.P,THONKISWITCHPOT\u002A\u002A,4*%
X24145000Y-5060000D03*
%TO.P,THONKISWITCHPOT\u002A\u002A,5*%
X21605000Y-5060000D03*
%TO.P,THONKISWITCHPOT\u002A\u002A,6*%
X19055000Y-5060000D03*
D15*
X18645000Y-5060000D03*
D16*
%TO.P,THONKISWITCHPOT\u002A\u002A,7*%
X16300000Y-5060000D03*
%TO.P,THONKISWITCHPOT\u002A\u002A,8*%
X26910000Y-5060000D03*
D14*
%TO.P,THONKISWITCHPOT\u002A\u002A,9*%
X18355000Y-2810000D03*
%TO.P,THONKISWITCHPOT\u002A\u002A,10*%
X24855000Y-2810000D03*
%TO.P,THONKISWITCHPOT\u002A\u002A,11*%
X18355000Y-7310000D03*
%TO.P,THONKISWITCHPOT\u002A\u002A,12*%
X24855000Y-7310000D03*
%TD*%
D17*
%TO.P,THONK,1*%
%TO.N,N/C*%
X15000000Y-17445000D03*
D18*
%TO.P,THONK,3*%
X27000000Y-17445000D03*
D19*
X3000000Y-17445000D03*
D11*
%TO.P,THONK,4*%
X5860000Y-17445000D03*
X24140000Y-17485000D03*
%TO.P,THONK,5*%
X21600000Y-17485000D03*
X8400000Y-17445000D03*
%TO.P,THONK,6*%
X19050000Y-17485000D03*
D12*
X11360000Y-17445000D03*
D11*
X10950000Y-17445000D03*
D15*
X18640000Y-17485000D03*
%TD*%
D20*
%TO.P,REF\u002A\u002A,1*%
%TO.N,N/C*%
X14100000Y-10350000D03*
D21*
%TO.P,REF\u002A\u002A,2*%
X14100000Y-11850000D03*
D20*
%TO.P,REF\u002A\u002A,3*%
X15900000Y-12150000D03*
D21*
%TO.P,REF\u002A\u002A,4*%
X15900000Y-10650000D03*
%TD*%
D22*
%TO.P,REF\u002A\u002A,1*%
%TO.N,N/C*%
X1270000Y-2360000D03*
D23*
%TO.P,REF\u002A\u002A,2*%
X1270000Y-4900000D03*
%TO.P,REF\u002A\u002A,3*%
X1270000Y-7440000D03*
%TO.P,REF\u002A\u002A,4*%
X1270000Y-9980000D03*
%TO.P,REF\u002A\u002A,5*%
X1270000Y-12520000D03*
%TO.P,REF\u002A\u002A,6*%
X1270000Y-15060000D03*
%TO.P,REF\u002A\u002A,7*%
X1270000Y-17600000D03*
%TO.P,REF\u002A\u002A,8*%
X1270000Y-20140000D03*
%TD*%
%TO.P,REF\u002A\u002A,8*%
%TO.N,N/C*%
X28730000Y-20140000D03*
%TO.P,REF\u002A\u002A,7*%
X28730000Y-17600000D03*
%TO.P,REF\u002A\u002A,6*%
X28730000Y-15060000D03*
%TO.P,REF\u002A\u002A,5*%
X28730000Y-12520000D03*
%TO.P,REF\u002A\u002A,4*%
X28730000Y-9980000D03*
%TO.P,REF\u002A\u002A,3*%
X28730000Y-7440000D03*
%TO.P,REF\u002A\u002A,2*%
X28730000Y-4900000D03*
D22*
%TO.P,REF\u002A\u002A,1*%
X28730000Y-2360000D03*
%TD*%
D24*
%TO.N,*%
X3095000Y-5055000D02*
X1425000Y-5055000D01*
X27970000Y-20900000D02*
X18200000Y-20900000D01*
X3000000Y-17445000D02*
X3000000Y-16790000D01*
X12200000Y-20700000D02*
X1830000Y-20700000D01*
X15900000Y-12150000D02*
X15900000Y-13400000D01*
X1425000Y-5055000D02*
X1270000Y-4900000D01*
X28730000Y-20140000D02*
X27970000Y-20900000D01*
X20500000Y-19900000D02*
X26430000Y-19900000D01*
X14100000Y-5450000D02*
X13705000Y-5055000D01*
X24300000Y-1400000D02*
X21605000Y-4095000D01*
X19055000Y-3510000D02*
X18355000Y-2810000D01*
X24855000Y-5770000D02*
X24145000Y-5060000D01*
X28060000Y-10650000D02*
X28730000Y-9980000D01*
X28570000Y-5060000D02*
X28730000Y-4900000D01*
X27000000Y-16790000D02*
X28730000Y-15060000D01*
X2430000Y-1200000D02*
X6022500Y-1200000D01*
X10950000Y-5550000D02*
X7800000Y-8700000D01*
X26910000Y-5060000D02*
X28570000Y-5060000D01*
X13050000Y-11850000D02*
X11180000Y-9980000D01*
X14100000Y-11850000D02*
X13050000Y-11850000D01*
X13705000Y-5055000D02*
X16295000Y-5055000D01*
X13100000Y-19800000D02*
X12200000Y-20700000D01*
X1830000Y-20700000D02*
X1270000Y-20140000D01*
X26960000Y-17485000D02*
X27000000Y-17445000D01*
X18645000Y-5060000D02*
X22315000Y-8730000D01*
X3000000Y-16790000D02*
X1270000Y-15060000D01*
X3720000Y-12520000D02*
X1270000Y-12520000D01*
X3470000Y-19800000D02*
X10100000Y-19800000D01*
X10950000Y-5055000D02*
X10950000Y-3505000D01*
X21600000Y-17400000D02*
X26480000Y-12520000D01*
X15000000Y-17700000D02*
X15000000Y-17445000D01*
X6022500Y-1200000D02*
X8400000Y-3577500D01*
X24145000Y-5060000D02*
X26910000Y-5060000D01*
X10950000Y-5055000D02*
X10950000Y-5550000D01*
X11180000Y-9980000D02*
X1270000Y-9980000D01*
X10950000Y-5055000D02*
X11360000Y-5055000D01*
X8400000Y-17445000D02*
X8400000Y-17200000D01*
X26430000Y-19900000D02*
X28730000Y-17600000D01*
X24855000Y-7310000D02*
X24855000Y-5770000D01*
X22315000Y-8730000D02*
X27440000Y-8730000D01*
X10950000Y-3505000D02*
X11700000Y-2755000D01*
X21605000Y-4095000D02*
X21605000Y-5060000D01*
X27770000Y-1400000D02*
X24300000Y-1400000D01*
X3095000Y-5055000D02*
X5860000Y-5055000D01*
X19050000Y-18450000D02*
X20500000Y-19900000D01*
X27000000Y-17445000D02*
X27000000Y-16790000D01*
X5860000Y-17445000D02*
X3000000Y-17445000D01*
X10100000Y-19800000D02*
X10950000Y-18950000D01*
X8400000Y-17200000D02*
X3720000Y-12520000D01*
X21600000Y-17485000D02*
X21600000Y-17400000D01*
X19055000Y-5060000D02*
X19055000Y-3510000D01*
X15900000Y-13400000D02*
X13100000Y-16200000D01*
X14100000Y-10350000D02*
X14100000Y-5450000D01*
X5200000Y-7255000D02*
X5200000Y-5715000D01*
X18200000Y-20900000D02*
X15000000Y-17700000D01*
X13100000Y-16200000D02*
X13100000Y-19800000D01*
X26480000Y-12520000D02*
X28730000Y-12520000D01*
X16295000Y-5055000D02*
X16300000Y-5060000D01*
X2530000Y-8700000D02*
X1270000Y-7440000D01*
X18645000Y-5060000D02*
X19055000Y-5060000D01*
X19050000Y-17485000D02*
X18640000Y-17485000D01*
X8400000Y-3577500D02*
X8400000Y-5055000D01*
X15900000Y-10650000D02*
X28060000Y-10650000D01*
X1270000Y-2360000D02*
X2430000Y-1200000D01*
X5200000Y-5715000D02*
X5860000Y-5055000D01*
X27440000Y-8730000D02*
X28730000Y-7440000D01*
X1270000Y-17600000D02*
X3470000Y-19800000D01*
X28730000Y-2360000D02*
X27770000Y-1400000D01*
X10950000Y-17445000D02*
X11360000Y-17445000D01*
X7800000Y-8700000D02*
X2530000Y-8700000D01*
X10950000Y-18950000D02*
X10950000Y-17445000D01*
X24140000Y-17485000D02*
X26960000Y-17485000D01*
X19050000Y-17485000D02*
X19050000Y-18450000D01*
%TD*%
M02*
